{
    "patcher": {
        "fileversion": 1,
        "appversion": {
            "major": 9,
            "minor": 1,
            "revision": 2,
            "architecture": "x64",
            "modernui": 1
        },
        "classnamespace": "box",
        "rect": [ 59.0, 106.0, 1000.0, 730.0 ],
        "boxes": [
            {
                "box": {
                    "id": "obj-106",
                    "linecount": 5,
                    "maxclass": "comment",
                    "numinlets": 1,
                    "numoutlets": 0,
                    "patching_rect": [ 748.780505657196, 881.7073380947113, 182.21949434280396, 75.0 ],
                    "text": "LOWPASS filter equation:\ny = (x[0]) * (1-(z)) + (y[-1] *z\nx is input stream\ny is the output stream\nz os feedback coefficient (0.-1.)"
                }
            },
            {
                "box": {
                    "id": "obj-104",
                    "linecount": 11,
                    "maxclass": "comment",
                    "numinlets": 1,
                    "numoutlets": 0,
                    "patching_rect": [ 948.7805104255676, 791.4634335041046, 347.6923408508301, 158.0 ],
                    "text": "Free variables in this patch\nFeedback coeff\nmetro bang rate\ndrunk range\ndrunk step\n\nnote durtation (in the transcribe)\nOnset\nrounding of pitch values\nmidi velocity\nautoscale output bounds (pitch or durations)"
                }
            },
            {
                "box": {
                    "color": [ 0.466667, 0.254902, 0.607843, 1.0 ],
                    "id": "obj-100",
                    "maxclass": "newobj",
                    "numinlets": 1,
                    "numoutlets": 0,
                    "patching_rect": [ 666.1539096832275, 90.76923942565918, 87.0, 22.0 ],
                    "text": "s global-switch"
                }
            },
            {
                "box": {
                    "id": "obj-99",
                    "maxclass": "toggle",
                    "numinlets": 1,
                    "numoutlets": 1,
                    "outlettype": [ "int" ],
                    "parameter_enable": 0,
                    "patching_rect": [ 656.9231395721436, 46.15385055541992, 24.0, 24.0 ]
                }
            },
            {
                "box": {
                    "id": "obj-98",
                    "linecount": 2,
                    "maxclass": "newobj",
                    "numinlets": 3,
                    "numoutlets": 2,
                    "outlettype": [ "", "int" ],
                    "patching_rect": [ 1260.5714285714284, 693.0000166893005, 101.53847122192383, 36.0 ],
                    "text": "bach.ezmidiplay 8"
                }
            },
            {
                "box": {
                    "id": "obj-97",
                    "maxclass": "message",
                    "numinlets": 2,
                    "numoutlets": 1,
                    "outlettype": [ "" ],
                    "patching_rect": [ 875.0, 313.0, 56.0, 22.0 ],
                    "text": "clefs ffgg"
                }
            },
            {
                "box": {
                    "bwcompatibility": 80300,
                    "clefs": [ "FFGG" ],
                    "defaultnoteslots": [ "null" ],
                    "fontface": 0,
                    "fontname": "Arial",
                    "fontsize": 12.0,
                    "id": "obj-95",
                    "loop": [ 0, 1000 ],
                    "maxclass": "bach.roll",
                    "numinlets": 6,
                    "numoutlets": 8,
                    "numvoices": 1,
                    "out": "nnnnnnn",
                    "outlettype": [ "", "", "", "", "", "", "", "bang" ],
                    "patching_rect": [ 826.0, 370.0, 526.0, 264.83333333333337 ],
                    "pitcheditrange": [ "null" ],
                    "stafflines": [ 5 ],
                    "textcolor": [ 0.0, 0.0, 0.0, 1.0 ],
                    "versionnumber": 80300,
                    "voicenames": [ "[", "]" ],
                    "voicespacing": [ 0.0, 17.0 ],
                    "whole_roll_data_0000000000": [ "roll", "[", "slotinfo", "[", 1, "[", "name", "velocity envelope", "]", "[", "type", "function", "]", "[", "key", 0, "]", "[", "range", "_x_x_x_x_bach_float64_x_x_x_x_", 0, 0, "_x_x_x_x_bach_float64_x_x_x_x_", 0, 1080016896, "]", "[", "slope", "_x_x_x_x_bach_float64_x_x_x_x_", 0, 0, "]", "[", "representation", "]", "[", "grid", "]", "[", "ysnap", "]", "[", "domain", "_x_x_x_x_bach_float64_x_x_x_x_", 0, 0, "_x_x_x_x_bach_float64_x_x_x_x_", 0, 1072693248, "]", "[", "domainslope", "_x_x_x_x_bach_float64_x_x_x_x_", 0, 0, "]", "[", "temporalmode", "relative", "]", "[", "extend", 0, "]", "[", "width", "auto", "]", "[", "height", "auto", "]", "[", "copywhensplit", 0, "]", "[", "access", "readandwrite", "]", "[", "follownotehead", 0, "]", "]", "[", 2, "[", "name", "slot function", "]", "[", "type", "function", "]", "[", "key", 0, "]", "[", "range", "_x_x_x_x_bach_float64_x_x_x_x_", 0, 0, "_x_x_x_x_bach_float64_x_x_x_x_", 0, 1072693248, "]", "[", "slope", "_x_x_x_x_bach_float64_x_x_x_x_", 0, 0, "]", "[", "representation", "]", "[", "grid", "]", "[", "ysnap", "]", "[", "domain", "_x_x_x_x_bach_float64_x_x_x_x_", 0, 0, "_x_x_x_x_bach_float64_x_x_x_x_", 0, 1072693248, "]", "[", "domainslope", "_x_x_x_x_bach_float64_x_x_x_x_", 0, 0, "]", "[", "temporalmode", "relative", "]", "[", "extend", 0, "]", "[", "width", "auto", "]", "[", "height", "auto", "]", "[", "copywhensplit", 0, "]", "[", "access", "readandwrite", "]", "[", "follownotehead", 0, "]", "]", "[", 3, "[", "name", "slot intlist", "]", "[", "type", "intlist", "]", "[", "key", 0, "]", "[", "range", "_x_x_x_x_bach_float64_x_x_x_x_", 0, 0, "_x_x_x_x_bach_float64_x_x_x_x_", 0, 1080016896, "]", "[", "slope", "_x_x_x_x_bach_float64_x_x_x_x_", 0, 0, "]", "[", "representation", "]", "[", "default", "_x_x_x_x_bach_float64_x_x_x_x_", 0, 1078984704, "]", "[", "temporalmode", "none", "]", "[", "extend", 0, "]", "[", "width", "_x_x_x_x_bach_float64_x_x_x_x_", 0, 1079574528, "]", "[", "height", "auto", "]", "[", "copywhensplit", 1, "]", "[", "access", "readandwrite", "]", "[", "follownotehead", 0, "]", "]", "[", 4, "[", "name", "slot floatlist", "]", "[", "type", "floatlist", "]", "[", "key", 0, "]", "[", "range", "_x_x_x_x_bach_float64_x_x_x_x_", 0, 0, "_x_x_x_x_bach_float64_x_x_x_x_", 0, 1072693248, "]", "[", "slope", "_x_x_x_x_bach_float64_x_x_x_x_", 0, 0, "]", "[", "representation", "]", "[", "default", "_x_x_x_x_bach_float64_x_x_x_x_", 0, 0, "]", "[", "temporalmode", "none", "]", "[", "extend", 0, "]", "[", "width", "_x_x_x_x_bach_float64_x_x_x_x_", 0, 1079574528, "]", "[", "height", "auto", "]", "[", "copywhensplit", 1, "]", "[", "access", "readandwrite", "]", "[", "follownotehead", 0, "]", "]", "[", 5, "[", "name", "slot int", "]", "[", "type", "int", "]", "[", "key", 0, "]", "[", "range", "_x_x_x_x_bach_float64_x_x_x_x_", 0, 0, "_x_x_x_x_bach_float64_x_x_x_x_", 0, 1080016896, "]", "[", "slope", "_x_x_x_x_bach_float64_x_x_x_x_", 0, 0, "]", "[", "representation", "]", "[", "default", "_x_x_x_x_bach_float64_x_x_x_x_", 0, 1078984704, "]", "[", "temporalmode", "none", "]", "[", "extend", 0, "]", "[", "width", "_x_x_x_x_bach_float64_x_x_x_x_", 0, 1079574528, "]", "[", "height", "auto", "]", "[", "copywhensplit", 1, "]", "[", "access", "readandwrite", "]", "[", "follownotehead", 0, "]", "]", "[", 6, "[", "name", "slot float", "]", "[", "type", "float", "]", "[", "key", 0, "]", "[", "range", "_x_x_x_x_bach_float64_x_x_x_x_", 0, 0, "_x_x_x_x_bach_float64_x_x_x_x_", 0, 1072693248, "]", "[", "slope", "_x_x_x_x_bach_float64_x_x_x_x_", 0, 0, "]", "[", "representation", "]", "[", "default", "_x_x_x_x_bach_float64_x_x_x_x_", 0, 0, "]", "[", "temporalmode", "none", "]", "[", "extend", 0, "]", "[", "width", "_x_x_x_x_bach_float64_x_x_x_x_", 0, 1079574528, "]", "[", "height", "auto", "]", "[", "copywhensplit", 1, "]", "[", "access", "readandwrite", "]", "[", "follownotehead", 0, "]", "]", "[", 7, "[", "name", "slot text", "]", "[", "type", "text", "]", "[", "key", 0, "]", "[", "temporalmode", "none", "]", "[", "extend", 0, "]", "[", "width", "_x_x_x_x_bach_float64_x_x_x_x_", 0, 1079574528, "]", "[", "height", "auto", "]", "[", "copywhensplit", 0, "]", "[", "access", "readandwrite", "]", "[", "follownotehead", 0, "]", "]", "[", 8, "[", "name", "slot filelist", "]", "[", "type", "filelist", "]", "[", "key", 0, "]", "[", "temporalmode", "none", "]", "[", "extend", 0, "]", "[", "width", "_x_x_x_x_bach_float64_x_x_x_x_", 0, 1080213504, "]", "[", "height", "auto", "]", "[", "copywhensplit", 1, "]", "[", "access", "readandwrite", "]", "[", "follownotehead", 0, "]", "]", "[", 9, "[", "name", "slot spat", "]", "[", "type", "spat", "]", "[", "key", 0, "]", "[", "range", "_x_x_x_x_bach_float64_x_x_x_x_", 0, 0, "_x_x_x_x_bach_float64_x_x_x_x_", 0, 1076101120, "]", "[", "slope", "_x_x_x_x_bach_float64_x_x_x_x_", 0, 0, "]", "[", "representation", "]", "[", "temporalmode", "relative", "]", "[", "extend", 0, "]", "[", "width", "auto", "]", "[", "height", "auto", "]", "[", "copywhensplit", 0, "]", "[", "access", "readandwrite", "]", "[", "follownotehead", 0, "]", "]", "[", 10, "[", "name", "slot llll", "]", "[", "type", "llll", "]", "[", "key", 0, "]", "[", "temporalmode", "none", "]", "[", "extend", 0, "]", "[", "width", "_x_x_x_x_bach_float64_x_x_x_x_", 0, 1079574528, "]", "[", "height", "auto", "]", "[", "copywhensplit", 0, "]", "[", "access", "readandwrite", "]", "[", "follownotehead", 0, "]", "]", "[", 11, "[", "name", "slot 11", "]", "[", "type", "none", "]", "[", "key", 0, "]", "[", "temporalmode", "none", "]", "[", "extend", 0, "]", "[", "width", "_x_x_x_x_bach_float64_x_x_x_x_", 0, 1079574528, "]", "[", "height", "auto", "]", "[", "copywhensplit", 1, "]", "[", "access", "readandwrite", "]", "[", "follownotehead", 0, "]", "]", "[", 12, "[", "name", "slot 12", "]", "[", "type", "none", "]", "[", "key", 0, "]", "[", "temporalmode", "none", "]", "[", "extend", 0, "]", "[", "width", "_x_x_x_x_bach_float64_x_x_x_x_", 0, 1079574528, "]", "[", "height", "auto", "]", "[", "copywhensplit", 1, "]", "[", "access", "readandwrite", "]", "[", "follownotehead", 0, "]", "]", "[", 13, "[", "name", "slot 13", "]", "[", "type", "none", "]", "[", "key", 0, "]", "[", "temporalmode", "none", "]", "[", "extend", 0, "]", "[", "width", "_x_x_x_x_bach_float64_x_x_x_x_", 0, 1079574528, "]", "[", "height", "auto", "]", "[", "copywhensplit", 1, "]", "[", "access", "readandwrite", "]", "[", "follownotehead", 0, "]", "]", "[", 14, "[", "name", "slot 14", "]", "[", "type", "none", "]", "[", "key", 0, "]", "[", "temporalmode", "none", "]", "[", "extend", 0, "]", "[", "width", "_x_x_x_x_bach_float64_x_x_x_x_", 0, 1079574528, "]", "[", "height", "auto", "]", "[", "copywhensplit", 1, "]", "[", "access", "readandwrite", "]", "[", "follownotehead", 0, "]", "]", "[", 15, "[", "name", "slot 15", "]", "[", "type", "none", "]", "[", "key", 0, "]", "[", "temporalmode", "none", "]", "[", "extend", 0, "]", "[", "width", "_x_x_x_x_bach_float64_x_x_x_x_", 0, 1079574528, "]", "[", "height", "auto", "]", "[", "copywhensplit", 1, "]", "[", "access", "readandwrite", "]", "[", "follownotehead", 0, "]", "]", "[", 16, "[", "name", "slot 16", "]", "[", "type", "none", "]", "[", "key", 0, "]", "[", "temporalmode", "none", "]", "[", "extend", 0, "]", "[", "width", "_x_x_x_x_bach_float64_x_x_x_x_", 0, 1079574528, "]", "[", "height", "auto", "]", "[", "copywhensplit", 1, "]", "[", "access", "readandwrite", "]", "[", "follownotehead", 0, "]", "]", "[", 17, "[", "name", "slot 17", "]", "[", "type", "none", "]", "[", "key", 0, "]", "[", "temporalmode", "none", "]", "[", "extend", 0, "]", "[", "width", "_x_x_x_x_bach_float64_x_x_x_x_", 0, 1079574528, "]", "[", "height", "auto", "]", "[", "copywhensplit", 1, "]", "[", "access", "readandwrite", "]", "[", "follownotehead", 0, "]", "]", "[", 18, "[", "name", "slot 18", "]", "[", "type", "none", "]", "[", "key", 0, "]", "[", "temporalmode", "none", "]", "[", "extend", 0, "]", "[", "width", "_x_x_x_x_bach_float64_x_x_x_x_", 0, 1079574528, "]", "[", "height", "auto", "]", "[", "copywhensplit", 1, "]", "[", "access", "readandwrite", "]", "[", "follownotehead", 0, "]", "]", "[", 19, "[", "name", "slot 19", "]", "[", "type", "none", "]", "[", "key", 0, "]", "[", "temporalmode", "none", "]", "[", "extend", 0, "]", "[", "width", "_x_x_x_x_bach_float64_x_x_x_x_", 0, 1079574528, "]", "[", "height", "auto", "]", "[", "copywhensplit", 1, "]", "[", "access", "readandwrite", "]", "[", "follownotehead", 0, "]", "]", "[", 20, "[", "name", "dynamics", "]", "[", "type", "dynamics", "]", "[", "key", "d", "]", "[", "temporalmode", "none", "]", "[", "extend", 0, "]", "[", "width", "_x_x_x_x_bach_float64_x_x_x_x_", 0, 1079738368, "]", "[", "height", "auto", "]", "[", "copywhensplit", 0, "]", "[", "access", "readandwrite", "]", "[", "follownotehead", 0, "]", "]", "[", 21, "[", "name", "lyrics", "]", "[", "type", "text", "]", "[", "key", "l", "]", "[", "temporalmode", "none", "]", "[", "extend", 0, "]", "[", "width", "_x_x_x_x_bach_float64_x_x_x_x_", 0, 1079574528, "]", "[", "height", "auto", "]", "[", "copywhensplit", 0, "]", "[", "access", "readandwrite", "]", "[", "follownotehead", 0, "]", "]", "[", 22, "[", "name", "articulations", "]", "[", "type", "articulations", "]", "[", "key", "a", "]", "[", "temporalmode", "none", "]", "[", "extend", 0, "]", "[", "width", "_x_x_x_x_bach_float64_x_x_x_x_", 0, 1079738368, "]", "[", "height", "auto", "]", "[", "copywhensplit", 1, "]", "[", "access", "readandwrite", "]", "[", "follownotehead", 0, "]", "]", "[", 23, "[", "name", "notehead", "]", "[", "type", "notehead", "]", "[", "key", "h", "]", "[", "temporalmode", "none", "]", "[", "extend", 0, "]", "[", "width", "_x_x_x_x_bach_float64_x_x_x_x_", 0, 1079738368, "]", "[", "height", "auto", "]", "[", "copywhensplit", 1, "]", "[", "access", "readandwrite", "]", "[", "follownotehead", 0, "]", "]", "[", 24, "[", "name", "annotation", "]", "[", "type", "text", "]", "[", "key", "t", "]", "[", "temporalmode", "none", "]", "[", "extend", 0, "]", "[", "width", "_x_x_x_x_bach_float64_x_x_x_x_", 0, 1079574528, "]", "[", "height", "auto", "]", "[", "copywhensplit", 1, "]", "[", "access", "readandwrite", "]", "[", "follownotehead", 0, "]", "]", "[", 25, "[", "name", "slot 25", "]", "[", "type", "none", "]", "[", "key", 0, "]", "[", "temporalmode", "none", "]", "[", "extend", 0, "]", "[", "width", "_x_x_x_x_bach_float64_x_x_x_x_", 0, 1079574528, "]", "[", "height", "auto", "]", "[", "copywhensplit", 1, "]", "[", "access", "readandwrite", "]", "[", "follownotehead", 0, "]", "]", "[", 26, "[", "name", "slot 26", "]", "[", "type", "none", "]", "[", "key", 0, "]", "[", "temporalmode", "none", "]", "[", "extend", 0, "]", "[", "width", "_x_x_x_x_bach_float64_x_x_x_x_", 0, 1079574528, "]", "[", "height", "auto", "]", "[", "copywhensplit", 1, "]", "[", "access", "readandwrite", "]", "[", "follownotehead", 0, "]", "]", "[", 27, "[", "name", "slot 27", "]", "[", "type", "none", "]", "[", "key", 0, "]", "[", "temporalmode", "none", "]", "[", "extend", 0, "]", "[", "width", "_x_x_x_x_bach_float64_x_x_x_x_", 0, 1079574528, "]", "[", "height", "auto", "]", "[", "copywhensplit", 1, "]", "[", "access", "readandwrite", "]", "[", "follownotehead", 0, "]", "]", "[", 28, "[", "name", "slot 28", "]", "[", "type", "none", "]", "[", "key", 0, "]", "[", "temporalmode", "none", "]", "[", "extend", 0, "]", "[", "width", "_x_x_x_x_bach_float64_x_x_x_x_", 0, 1079574528, "]", "[", "height", "auto", "]", "[", "copywhensplit", 1, "]", "[", "access", "readandwrite", "]", "[", "follownotehead", 0, "]", "]", "[", 29, "[", "name", "slot 29", "]", "[", "type", "none", "]", "[", "key", 0, "]", "[", "temporalmode", "none", "]", "[", "extend", 0, "]", "[", "width", "_x_x_x_x_bach_float64_x_x_x_x_", 0, 1079574528, "]", "[", "height", "auto", "]", "[", "copywhensplit", 1, "]", "[", "access", "readandwrite", "]", "[", "follownotehead", 0, "]", "]", "[", 30, "[", "name", "slot 30", "]", "[", "type", "none", "]", "[", "key", 0, "]", "[", "temporalmode", "none", "]", "[", "extend", 0, "]", "[", "width", "_x_x_x_x_bach_float64_x_x_x_x_", 0, 1079574528, "]", "[", "height", "auto", "]", "[", "copywhensplit", 1, "]", "[", "access", "readandwrite", "]", "[", "follownotehead", 0, "]", "]", "]", "[", "commands", "[", 1, "[", "name", "command", "]", "[", "note", "note", "]", "[", "chord", "chord", "]", "[", "rest", "rest", "]", "[", "marker", "marker", "]", "[", "start", "none", "]", "[", "end", "none", "]", "[", "key", 0, "]", "]", "[", 2, "[", "name", "command", "]", "[", "note", "note", "]", "[", "chord", "chord", "]", "[", "rest", "rest", "]", "[", "marker", "marker", "]", "[", "start", "none", "]", "[", "end", "none", "]", "[", "key", 0, "]", "]", "[", 3, "[", "name", "command", "]", "[", "note", "note", "]", "[", "chord", "chord", "]", "[", "rest", "rest", "]", "[", "marker", "marker", "]", "[", "start", "none", "]", "[", "end", "none", "]", "[", "key", 0, "]", "]", "[", 4, "[", "name", "command", "]", "[", "note", "note", "]", "[", "chord", "chord", "]", "[", "rest", "rest", "]", "[", "marker", "marker", "]", "[", "start", "none", "]", "[", "end", "none", "]", "[", "key", 0, "]", "]", "[", 5, "[", "name", "command", "]", "[", "note", "note", "]", "[", "chord", "chord", "]", "[", "rest", "rest", "]", "[", "marker", "marker", "]", "[", "start", "none", "]", "[", "end", "none", "]", "[", "key", 0, "]", "]", "]", "[", "groups", "]", "[", "markers", "]", "[", "midichannels", 1, "]", "[", "articulationinfo", "]", "[", "noteheadinfo", "]", "[", "[", "_x_x_x_x_bach_float64_x_x_x_x_", 1006632960, 1075884733, "[", "_x_x_x_x_bach_float64_x_x_x_x_", 0, 1086284864, "_x_x_x_x_bach_float64_x_x_x_x_", 2302148608, 1083768705, 100, 0, "]", 0, "]", "[", "_x_x_x_x_bach_float64_x_x_x_x_", 4265607168, 1080529475, "[", "_x_x_x_x_bach_float64_x_x_x_x_", 0, 1086276416, "_x_x_x_x_bach_float64_x_x_x_x_", 2213019648, 1083584158, 100, 0, "]", 0, "]", "[", "_x_x_x_x_bach_float64_x_x_x_x_", 2625634304, 1081045922, "[", "_x_x_x_x_bach_float64_x_x_x_x_", 0, 1086284864, "_x_x_x_x_bach_float64_x_x_x_x_", 2954887168, 1083519602, 100, 0, "]", 0, "]", "[", "_x_x_x_x_bach_float64_x_x_x_x_", 2864709632, 1081054159, "[", "_x_x_x_x_bach_float64_x_x_x_x_", 0, 1086296768, "_x_x_x_x_bach_float64_x_x_x_x_", 240648192, 1083518573, 100, 0, "]", 0, "]", "[", "_x_x_x_x_bach_float64_x_x_x_x_", 639631360, 1082051667, "[", "_x_x_x_x_bach_float64_x_x_x_x_", 0, 1086296768, "_x_x_x_x_bach_float64_x_x_x_x_", 975699968, 1083272658, 100, 0, "]", 0, "]", "[", "_x_x_x_x_bach_float64_x_x_x_x_", 2495610880, 1082054245, "[", "_x_x_x_x_bach_float64_x_x_x_x_", 0, 1086237312, "_x_x_x_x_bach_float64_x_x_x_x_", 2659188736, 1083272013, 100, 0, "]", 0, "]", "[", "_x_x_x_x_bach_float64_x_x_x_x_", 879755264, 1082609536, "[", "_x_x_x_x_bach_float64_x_x_x_x_", 0, 1086237312, "_x_x_x_x_bach_float64_x_x_x_x_", 3538944000, 1082847821, 100, 0, "]", 0, "]", "[", "_x_x_x_x_bach_float64_x_x_x_x_", 2274361344, 1082610693, "[", "_x_x_x_x_bach_float64_x_x_x_x_", 0, 1086228800, "_x_x_x_x_bach_float64_x_x_x_x_", 2144337920, 1082846664, 100, 0, "]", 0, "]", "[", "_x_x_x_x_bach_float64_x_x_x_x_", 1477443584, 1083131961, "[", "_x_x_x_x_bach_float64_x_x_x_x_", 0, 1086228800, "_x_x_x_x_bach_float64_x_x_x_x_", 2941255680, 1082325396, 100, 0, "]", 0, "]", "[", "_x_x_x_x_bach_float64_x_x_x_x_", 817889280, 1083132953, "[", "_x_x_x_x_bach_float64_x_x_x_x_", 0, 1086332864, "_x_x_x_x_bach_float64_x_x_x_x_", 3600809984, 1082324404, 100, 0, "]", 0, "]", "[", "_x_x_x_x_bach_float64_x_x_x_x_", 3910139904, 1083393079, "[", "_x_x_x_x_bach_float64_x_x_x_x_", 0, 1086332864, "_x_x_x_x_bach_float64_x_x_x_x_", 1786773504, 1081569980, 100, 0, "]", 0, "]", "[", "_x_x_x_x_bach_float64_x_x_x_x_", 2459959296, 1083393722, "[", "_x_x_x_x_bach_float64_x_x_x_x_", 0, 1086394048, "_x_x_x_x_bach_float64_x_x_x_x_", 3292528640, 1081567409, 100, 0, "]", 0, "]", "[", "_x_x_x_x_bach_float64_x_x_x_x_", 3593994240, 1083605445, "[", "_x_x_x_x_bach_float64_x_x_x_x_", 0, 1086394048, "_x_x_x_x_bach_float64_x_x_x_x_", 1807745024, 1080359177, 100, 0, "]", 0, "]", "[", "_x_x_x_x_bach_float64_x_x_x_x_", 2419064832, 1083606240, "[", "_x_x_x_x_bach_float64_x_x_x_x_", 0, 1086347296, "_x_x_x_x_bach_float64_x_x_x_x_", 2617245696, 1080352819, 100, 0, "]", 0, "]", 0, "]" ],
                    "whole_roll_data_count": [ 1 ]
                }
            },
            {
                "box": {
                    "format": 6,
                    "id": "obj-94",
                    "maxclass": "flonum",
                    "numinlets": 1,
                    "numoutlets": 2,
                    "outlettype": [ "", "bang" ],
                    "parameter_enable": 0,
                    "patching_rect": [ 483.5, 67.0, 50.0, 22.0 ]
                }
            },
            {
                "box": {
                    "id": "obj-92",
                    "maxclass": "newobj",
                    "numinlets": 1,
                    "numoutlets": 0,
                    "patching_rect": [ 485.0, 100.0, 47.0, 22.0 ],
                    "text": "s onset"
                }
            },
            {
                "box": {
                    "color": [ 0.466667, 0.254902, 0.607843, 1.0 ],
                    "id": "obj-90",
                    "maxclass": "newobj",
                    "numinlets": 0,
                    "numoutlets": 1,
                    "outlettype": [ "" ],
                    "patching_rect": [ 719.0, 166.0, 85.0, 22.0 ],
                    "text": "r global-switch"
                }
            },
            {
                "box": {
                    "id": "obj-91",
                    "maxclass": "toggle",
                    "numinlets": 1,
                    "numoutlets": 1,
                    "outlettype": [ "int" ],
                    "parameter_enable": 0,
                    "patching_rect": [ 719.0, 208.0, 24.0, 24.0 ]
                }
            },
            {
                "box": {
                    "id": "obj-89",
                    "maxclass": "comment",
                    "numinlets": 1,
                    "numoutlets": 0,
                    "patching_rect": [ 1034.0, 184.0, 99.0, 20.0 ],
                    "text": "<= note off msg"
                }
            },
            {
                "box": {
                    "id": "obj-88",
                    "maxclass": "message",
                    "numinlets": 2,
                    "numoutlets": 1,
                    "outlettype": [ "" ],
                    "patching_rect": [ 981.0, 183.0, 45.0, 22.0 ],
                    "text": "$1 100"
                }
            },
            {
                "box": {
                    "id": "obj-87",
                    "maxclass": "comment",
                    "numinlets": 1,
                    "numoutlets": 0,
                    "patching_rect": [ 875.0, 184.0, 99.0, 20.0 ],
                    "text": "<= note on msg"
                }
            },
            {
                "box": {
                    "id": "obj-85",
                    "maxclass": "message",
                    "numinlets": 2,
                    "numoutlets": 1,
                    "outlettype": [ "" ],
                    "patching_rect": [ 819.0, 182.0, 45.0, 22.0 ],
                    "text": "$1 100"
                }
            },
            {
                "box": {
                    "id": "obj-83",
                    "maxclass": "newobj",
                    "numinlets": 2,
                    "numoutlets": 1,
                    "outlettype": [ "" ],
                    "patching_rect": [ 981.0, 141.0, 61.0, 22.0 ],
                    "text": "pipe 2500"
                }
            },
            {
                "box": {
                    "id": "obj-82",
                    "maxclass": "newobj",
                    "numinlets": 1,
                    "numoutlets": 2,
                    "outlettype": [ "float", "float" ],
                    "patching_rect": [ 819.0, 108.0, 129.0, 22.0 ],
                    "text": "t f f"
                }
            },
            {
                "box": {
                    "id": "obj-81",
                    "maxclass": "newobj",
                    "numinlets": 2,
                    "numoutlets": 2,
                    "outlettype": [ "", "float" ],
                    "patching_rect": [ 719.0, 253.0, 138.0, 22.0 ],
                    "saved_object_attributes": {
                        "versionnumber": 80300
                    },
                    "text": "bach.transcribe @play 1"
                }
            },
            {
                "box": {
                    "color": [ 0.439216, 0.74902, 0.254902, 1.0 ],
                    "id": "obj-79",
                    "maxclass": "newobj",
                    "numinlets": 0,
                    "numoutlets": 1,
                    "outlettype": [ "" ],
                    "patching_rect": [ 818.9942006468773, 59.0, 41.0, 22.0 ],
                    "text": "r pitch"
                }
            },
            {
                "box": {
                    "color": [ 0.317647, 0.654902, 0.976471, 1.0 ],
                    "id": "obj-80",
                    "maxclass": "newobj",
                    "numinlets": 0,
                    "numoutlets": 1,
                    "outlettype": [ "" ],
                    "patching_rect": [ 1102.0, 59.0, 75.0, 22.0 ],
                    "text": "r note.length"
                }
            },
            {
                "box": {
                    "color": [ 0.439216, 0.74902, 0.254902, 1.0 ],
                    "id": "obj-78",
                    "maxclass": "newobj",
                    "numinlets": 1,
                    "numoutlets": 0,
                    "patching_rect": [ 137.0, 966.0, 43.0, 22.0 ],
                    "text": "s pitch"
                }
            },
            {
                "box": {
                    "id": "obj-77",
                    "maxclass": "newobj",
                    "numinlets": 1,
                    "numoutlets": 3,
                    "outlettype": [ "", "int", "int" ],
                    "patching_rect": [ 137.0, 924.0, 61.0, 22.0 ],
                    "text": "change 0."
                }
            },
            {
                "box": {
                    "id": "obj-76",
                    "maxclass": "comment",
                    "numinlets": 1,
                    "numoutlets": 0,
                    "patching_rect": [ 212.0, 884.0, 120.0, 20.0 ],
                    "text": "<= Nearest 8th tone"
                }
            },
            {
                "box": {
                    "id": "obj-74",
                    "maxclass": "newobj",
                    "numinlets": 2,
                    "numoutlets": 1,
                    "outlettype": [ "" ],
                    "patching_rect": [ 137.2440694332123, 883.0, 66.0, 22.0 ],
                    "text": "round 0.25"
                }
            },
            {
                "box": {
                    "color": [ 0.317647, 0.654902, 0.976471, 1.0 ],
                    "id": "obj-73",
                    "maxclass": "newobj",
                    "numinlets": 1,
                    "numoutlets": 0,
                    "patching_rect": [ 428.5, 897.4576485157013, 77.0, 22.0 ],
                    "text": "s note.length"
                }
            },
            {
                "box": {
                    "color": [ 0.784314, 0.145098, 0.023529, 1.0 ],
                    "id": "obj-72",
                    "maxclass": "newobj",
                    "numinlets": 1,
                    "numoutlets": 0,
                    "patching_rect": [ 362.7118730545044, 894.0678179264069, 47.0, 22.0 ],
                    "text": "s onset"
                }
            },
            {
                "box": {
                    "id": "obj-65",
                    "linecount": 2,
                    "maxclass": "comment",
                    "numinlets": 1,
                    "numoutlets": 0,
                    "patching_rect": [ 456.7796719074249, 662.7118802070618, 150.0, 34.0 ],
                    "presentation_linecount": 2,
                    "text": "AUTOSCALE\nDURATIONS"
                }
            },
            {
                "box": {
                    "id": "obj-66",
                    "maxclass": "newobj",
                    "numinlets": 1,
                    "numoutlets": 3,
                    "outlettype": [ "float", "float", "float" ],
                    "patching_rect": [ 377.11865305900574, 674.5762872695923, 65.91186113357543, 22.0 ],
                    "text": "t f f f"
                }
            },
            {
                "box": {
                    "id": "obj-67",
                    "maxclass": "newobj",
                    "numinlets": 2,
                    "numoutlets": 1,
                    "outlettype": [ "float" ],
                    "patching_rect": [ 476.2711977958679, 736.4406955242157, 29.5, 22.0 ],
                    "text": "f"
                }
            },
            {
                "box": {
                    "id": "obj-68",
                    "maxclass": "newobj",
                    "numinlets": 2,
                    "numoutlets": 2,
                    "outlettype": [ "float", "int" ],
                    "patching_rect": [ 423.7288236618042, 772.0339167118073, 74.0, 22.0 ],
                    "text": "maximum 0."
                }
            },
            {
                "box": {
                    "id": "obj-69",
                    "maxclass": "newobj",
                    "numinlets": 2,
                    "numoutlets": 1,
                    "outlettype": [ "float" ],
                    "patching_rect": [ 451.6949260234833, 700.0000166893005, 29.5, 22.0 ],
                    "text": "f"
                }
            },
            {
                "box": {
                    "id": "obj-70",
                    "maxclass": "newobj",
                    "numinlets": 2,
                    "numoutlets": 2,
                    "outlettype": [ "float", "int" ],
                    "patching_rect": [ 400.00000953674316, 735.5932378768921, 71.6033953666687, 22.0 ],
                    "text": "minimum 1."
                }
            },
            {
                "box": {
                    "id": "obj-71",
                    "maxclass": "newobj",
                    "numinlets": 6,
                    "numoutlets": 1,
                    "outlettype": [ "" ],
                    "patching_rect": [ 376.27119541168213, 840.6779861450195, 137.64407062530518, 22.0 ],
                    "text": "scale 0. 1. 500. 100."
                }
            },
            {
                "box": {
                    "id": "obj-64",
                    "linecount": 2,
                    "maxclass": "comment",
                    "numinlets": 1,
                    "numoutlets": 0,
                    "patching_rect": [ 216.94915771484375, 662.5762872695923, 150.0, 34.0 ],
                    "text": "AUTOSCALE\nPITCHES"
                }
            },
            {
                "box": {
                    "id": "obj-62",
                    "maxclass": "newobj",
                    "numinlets": 1,
                    "numoutlets": 3,
                    "outlettype": [ "float", "float", "float" ],
                    "patching_rect": [ 137.28813886642456, 674.5762872695923, 65.91186113357543, 22.0 ],
                    "text": "t f f f"
                }
            },
            {
                "box": {
                    "id": "obj-60",
                    "maxclass": "newobj",
                    "numinlets": 2,
                    "numoutlets": 1,
                    "outlettype": [ "float" ],
                    "patching_rect": [ 236.7423741340637, 736.4406955242157, 29.5, 22.0 ],
                    "text": "f"
                }
            },
            {
                "box": {
                    "id": "obj-61",
                    "maxclass": "newobj",
                    "numinlets": 2,
                    "numoutlets": 2,
                    "outlettype": [ "float", "int" ],
                    "patching_rect": [ 184.2, 772.0339167118073, 74.0, 22.0 ],
                    "text": "maximum 0."
                }
            },
            {
                "box": {
                    "id": "obj-59",
                    "maxclass": "newobj",
                    "numinlets": 2,
                    "numoutlets": 1,
                    "outlettype": [ "float" ],
                    "patching_rect": [ 212.2949164867401, 700.0000166893005, 29.5, 22.0 ],
                    "text": "f"
                }
            },
            {
                "box": {
                    "id": "obj-58",
                    "maxclass": "newobj",
                    "numinlets": 2,
                    "numoutlets": 2,
                    "outlettype": [ "float", "int" ],
                    "patching_rect": [ 160.6, 735.5932378768921, 71.6033953666687, 22.0 ],
                    "text": "minimum 1."
                }
            },
            {
                "box": {
                    "id": "obj-57",
                    "maxclass": "newobj",
                    "numinlets": 6,
                    "numoutlets": 1,
                    "outlettype": [ "" ],
                    "patching_rect": [ 136.61581484476721, 840.6779861450195, 137.9604628880819, 22.0 ],
                    "text": "scale 0. 1. 3100. 10800."
                }
            },
            {
                "box": {
                    "id": "obj-51",
                    "maxclass": "comment",
                    "numinlets": 1,
                    "numoutlets": 0,
                    "patching_rect": [ 802.5423920154572, 652.5423884391785, 75.90361726284027, 20.0 ],
                    "text": "\"tamed data"
                }
            },
            {
                "box": {
                    "id": "obj-45",
                    "maxclass": "multislider",
                    "numinlets": 1,
                    "numoutlets": 2,
                    "outlettype": [ "", "" ],
                    "parameter_enable": 0,
                    "patching_rect": [ 612.7118790149689, 674.5762872695923, 328.0, 121.0 ],
                    "setminmax": [ 0.0, 300.0 ],
                    "setstyle": 2
                }
            },
            {
                "box": {
                    "id": "obj-44",
                    "maxclass": "newobj",
                    "numinlets": 1,
                    "numoutlets": 3,
                    "outlettype": [ "float", "float", "float" ],
                    "patching_rect": [ 223.72881889343262, 628.0, 408.47458600997925, 22.0 ],
                    "text": "t f f f"
                }
            },
            {
                "box": {
                    "id": "obj-42",
                    "maxclass": "comment",
                    "numinlets": 1,
                    "numoutlets": 0,
                    "patching_rect": [ 259.0, 381.0, 96.0, 20.0 ],
                    "text": "feedback coeff."
                }
            },
            {
                "box": {
                    "id": "obj-40",
                    "maxclass": "newobj",
                    "numinlets": 1,
                    "numoutlets": 2,
                    "outlettype": [ "float", "float" ],
                    "patching_rect": [ 222.0, 438.0, 56.0, 22.0 ],
                    "text": "t f f"
                }
            },
            {
                "box": {
                    "id": "obj-34",
                    "maxclass": "newobj",
                    "numinlets": 2,
                    "numoutlets": 1,
                    "outlettype": [ "float" ],
                    "patching_rect": [ 222.0, 474.0, 29.5, 22.0 ],
                    "text": "!- 1."
                }
            },
            {
                "box": {
                    "id": "obj-33",
                    "maxclass": "newobj",
                    "numinlets": 2,
                    "numoutlets": 1,
                    "outlettype": [ "float" ],
                    "patching_rect": [ 224.0, 563.0, 50.0, 22.0 ],
                    "text": "+ 0."
                }
            },
            {
                "box": {
                    "id": "obj-32",
                    "maxclass": "newobj",
                    "numinlets": 2,
                    "numoutlets": 1,
                    "outlettype": [ "float" ],
                    "patching_rect": [ 259.0, 518.0, 33.0, 22.0 ],
                    "text": "* 0.5"
                }
            },
            {
                "box": {
                    "id": "obj-31",
                    "maxclass": "newobj",
                    "numinlets": 2,
                    "numoutlets": 1,
                    "outlettype": [ "float" ],
                    "patching_rect": [ 208.0, 518.0, 33.0, 22.0 ],
                    "text": "* 0.5"
                }
            },
            {
                "box": {
                    "id": "obj-30",
                    "linecount": 5,
                    "maxclass": "comment",
                    "numinlets": 1,
                    "numoutlets": 0,
                    "patching_rect": [ 102.0, 362.5, 98.0, 75.0 ],
                    "text": "Range: 0. 1. \nUnitstyle: float \nInital enable yes\ninitial value 0.5\nshort name z"
                }
            },
            {
                "box": {
                    "id": "obj-27",
                    "maxclass": "live.dial",
                    "numinlets": 1,
                    "numoutlets": 2,
                    "outlettype": [ "", "float" ],
                    "parameter_enable": 1,
                    "patching_rect": [ 222.0, 376.0, 41.0, 48.0 ],
                    "saved_attribute_attributes": {
                        "valueof": {
                            "parameter_initial": [ 0.5 ],
                            "parameter_initial_enable": 1,
                            "parameter_longname": "live.dial",
                            "parameter_mmax": 1.0,
                            "parameter_modmode": 3,
                            "parameter_shortname": "z",
                            "parameter_type": 0,
                            "parameter_unitstyle": 1
                        }
                    },
                    "varname": "live.dial"
                }
            },
            {
                "box": {
                    "id": "obj-26",
                    "maxclass": "comment",
                    "numinlets": 1,
                    "numoutlets": 0,
                    "patching_rect": [ 477.0, 355.0, 80.0, 20.0 ],
                    "text": "\"erratic\" data"
                }
            },
            {
                "box": {
                    "id": "obj-19",
                    "maxclass": "comment",
                    "numinlets": 1,
                    "numoutlets": 0,
                    "patching_rect": [ 329.0, 196.0, 302.0, 20.0 ],
                    "text": "multislider @setstyle 2 @size 1 @setminmax 0. 300"
                }
            },
            {
                "box": {
                    "id": "obj-17",
                    "maxclass": "multislider",
                    "numinlets": 1,
                    "numoutlets": 2,
                    "outlettype": [ "", "" ],
                    "parameter_enable": 0,
                    "patching_rect": [ 303.0, 232.0, 328.0, 121.0 ],
                    "setminmax": [ 0.0, 300.0 ],
                    "setstyle": 2
                }
            },
            {
                "box": {
                    "id": "obj-14",
                    "maxclass": "newobj",
                    "numinlets": 3,
                    "numoutlets": 1,
                    "outlettype": [ "" ],
                    "patching_rect": [ 303.0, 172.0, 79.0, 22.0 ],
                    "text": "drunk 300 75"
                }
            },
            {
                "box": {
                    "color": [ 0.784314, 0.145098, 0.023529, 1.0 ],
                    "id": "obj-13",
                    "maxclass": "newobj",
                    "numinlets": 0,
                    "numoutlets": 1,
                    "outlettype": [ "" ],
                    "patching_rect": [ 353.0, 107.0, 45.0, 22.0 ],
                    "text": "r onset"
                }
            },
            {
                "box": {
                    "color": [ 0.466667, 0.254902, 0.607843, 1.0 ],
                    "id": "obj-12",
                    "maxclass": "newobj",
                    "numinlets": 0,
                    "numoutlets": 1,
                    "outlettype": [ "" ],
                    "patching_rect": [ 303.0, 79.0, 85.0, 22.0 ],
                    "text": "r global-switch"
                }
            },
            {
                "box": {
                    "id": "obj-11",
                    "maxclass": "toggle",
                    "numinlets": 1,
                    "numoutlets": 1,
                    "outlettype": [ "int" ],
                    "parameter_enable": 0,
                    "patching_rect": [ 303.0, 106.0, 24.0, 24.0 ]
                }
            },
            {
                "box": {
                    "id": "obj-9",
                    "maxclass": "newobj",
                    "numinlets": 2,
                    "numoutlets": 1,
                    "outlettype": [ "bang" ],
                    "patching_rect": [ 303.0, 138.0, 69.0, 22.0 ],
                    "text": "metro 2500"
                }
            }
        ],
        "lines": [
            {
                "patchline": {
                    "destination": [ "obj-9", 0 ],
                    "source": [ "obj-11", 0 ]
                }
            },
            {
                "patchline": {
                    "destination": [ "obj-11", 0 ],
                    "source": [ "obj-12", 0 ]
                }
            },
            {
                "patchline": {
                    "destination": [ "obj-9", 1 ],
                    "source": [ "obj-13", 0 ]
                }
            },
            {
                "patchline": {
                    "destination": [ "obj-17", 0 ],
                    "order": 0,
                    "source": [ "obj-14", 0 ]
                }
            },
            {
                "patchline": {
                    "destination": [ "obj-31", 0 ],
                    "midpoints": [ 312.5, 219.0, 217.5, 219.0 ],
                    "order": 1,
                    "source": [ "obj-14", 0 ]
                }
            },
            {
                "patchline": {
                    "destination": [ "obj-40", 0 ],
                    "source": [ "obj-27", 0 ]
                }
            },
            {
                "patchline": {
                    "destination": [ "obj-33", 0 ],
                    "source": [ "obj-31", 0 ]
                }
            },
            {
                "patchline": {
                    "destination": [ "obj-33", 1 ],
                    "source": [ "obj-32", 0 ]
                }
            },
            {
                "patchline": {
                    "destination": [ "obj-32", 1 ],
                    "midpoints": [ 233.5, 597.0, 300.0, 597.0, 300.0, 513.0, 282.5, 513.0 ],
                    "order": 0,
                    "source": [ "obj-33", 0 ]
                }
            },
            {
                "patchline": {
                    "destination": [ "obj-44", 0 ],
                    "order": 1,
                    "source": [ "obj-33", 0 ]
                }
            },
            {
                "patchline": {
                    "destination": [ "obj-31", 1 ],
                    "source": [ "obj-34", 0 ]
                }
            },
            {
                "patchline": {
                    "destination": [ "obj-32", 0 ],
                    "source": [ "obj-40", 1 ]
                }
            },
            {
                "patchline": {
                    "destination": [ "obj-34", 0 ],
                    "source": [ "obj-40", 0 ]
                }
            },
            {
                "patchline": {
                    "destination": [ "obj-45", 0 ],
                    "source": [ "obj-44", 2 ]
                }
            },
            {
                "patchline": {
                    "destination": [ "obj-62", 0 ],
                    "source": [ "obj-44", 0 ]
                }
            },
            {
                "patchline": {
                    "destination": [ "obj-66", 0 ],
                    "source": [ "obj-44", 1 ]
                }
            },
            {
                "patchline": {
                    "destination": [ "obj-74", 0 ],
                    "source": [ "obj-57", 0 ]
                }
            },
            {
                "patchline": {
                    "destination": [ "obj-57", 1 ],
                    "order": 1,
                    "source": [ "obj-58", 0 ]
                }
            },
            {
                "patchline": {
                    "color": [ 1.0, 0.0, 0.0, 1.0 ],
                    "destination": [ "obj-59", 0 ],
                    "order": 0,
                    "source": [ "obj-58", 0 ]
                }
            },
            {
                "patchline": {
                    "destination": [ "obj-58", 1 ],
                    "source": [ "obj-59", 0 ]
                }
            },
            {
                "patchline": {
                    "destination": [ "obj-61", 1 ],
                    "source": [ "obj-60", 0 ]
                }
            },
            {
                "patchline": {
                    "destination": [ "obj-57", 2 ],
                    "order": 1,
                    "source": [ "obj-61", 0 ]
                }
            },
            {
                "patchline": {
                    "color": [ 1.0, 0.0, 0.0, 1.0 ],
                    "destination": [ "obj-60", 0 ],
                    "order": 0,
                    "source": [ "obj-61", 0 ]
                }
            },
            {
                "patchline": {
                    "destination": [ "obj-57", 0 ],
                    "source": [ "obj-62", 0 ]
                }
            },
            {
                "patchline": {
                    "destination": [ "obj-58", 0 ],
                    "source": [ "obj-62", 1 ]
                }
            },
            {
                "patchline": {
                    "destination": [ "obj-61", 0 ],
                    "source": [ "obj-62", 2 ]
                }
            },
            {
                "patchline": {
                    "destination": [ "obj-68", 0 ],
                    "source": [ "obj-66", 2 ]
                }
            },
            {
                "patchline": {
                    "destination": [ "obj-70", 0 ],
                    "source": [ "obj-66", 1 ]
                }
            },
            {
                "patchline": {
                    "destination": [ "obj-71", 0 ],
                    "source": [ "obj-66", 0 ]
                }
            },
            {
                "patchline": {
                    "destination": [ "obj-68", 1 ],
                    "source": [ "obj-67", 0 ]
                }
            },
            {
                "patchline": {
                    "color": [ 1.0, 0.0, 0.0, 1.0 ],
                    "destination": [ "obj-67", 0 ],
                    "order": 0,
                    "source": [ "obj-68", 0 ]
                }
            },
            {
                "patchline": {
                    "destination": [ "obj-71", 2 ],
                    "order": 1,
                    "source": [ "obj-68", 0 ]
                }
            },
            {
                "patchline": {
                    "destination": [ "obj-70", 1 ],
                    "source": [ "obj-69", 0 ]
                }
            },
            {
                "patchline": {
                    "color": [ 1.0, 0.0, 0.0, 1.0 ],
                    "destination": [ "obj-69", 0 ],
                    "order": 0,
                    "source": [ "obj-70", 0 ]
                }
            },
            {
                "patchline": {
                    "destination": [ "obj-71", 1 ],
                    "order": 1,
                    "source": [ "obj-70", 0 ]
                }
            },
            {
                "patchline": {
                    "destination": [ "obj-72", 0 ],
                    "order": 1,
                    "source": [ "obj-71", 0 ]
                }
            },
            {
                "patchline": {
                    "destination": [ "obj-73", 0 ],
                    "order": 0,
                    "source": [ "obj-71", 0 ]
                }
            },
            {
                "patchline": {
                    "destination": [ "obj-77", 0 ],
                    "source": [ "obj-74", 0 ]
                }
            },
            {
                "patchline": {
                    "destination": [ "obj-78", 0 ],
                    "source": [ "obj-77", 0 ]
                }
            },
            {
                "patchline": {
                    "destination": [ "obj-82", 0 ],
                    "source": [ "obj-79", 0 ]
                }
            },
            {
                "patchline": {
                    "destination": [ "obj-83", 1 ],
                    "source": [ "obj-80", 0 ]
                }
            },
            {
                "patchline": {
                    "destination": [ "obj-95", 0 ],
                    "source": [ "obj-81", 0 ]
                }
            },
            {
                "patchline": {
                    "destination": [ "obj-83", 0 ],
                    "source": [ "obj-82", 1 ]
                }
            },
            {
                "patchline": {
                    "destination": [ "obj-85", 0 ],
                    "source": [ "obj-82", 0 ]
                }
            },
            {
                "patchline": {
                    "destination": [ "obj-88", 0 ],
                    "source": [ "obj-83", 0 ]
                }
            },
            {
                "patchline": {
                    "destination": [ "obj-81", 1 ],
                    "source": [ "obj-85", 0 ]
                }
            },
            {
                "patchline": {
                    "destination": [ "obj-81", 1 ],
                    "source": [ "obj-88", 0 ]
                }
            },
            {
                "patchline": {
                    "destination": [ "obj-14", 0 ],
                    "source": [ "obj-9", 0 ]
                }
            },
            {
                "patchline": {
                    "destination": [ "obj-91", 0 ],
                    "source": [ "obj-90", 0 ]
                }
            },
            {
                "patchline": {
                    "destination": [ "obj-81", 0 ],
                    "source": [ "obj-91", 0 ]
                }
            },
            {
                "patchline": {
                    "destination": [ "obj-92", 0 ],
                    "source": [ "obj-94", 0 ]
                }
            },
            {
                "patchline": {
                    "destination": [ "obj-98", 0 ],
                    "source": [ "obj-95", 6 ]
                }
            },
            {
                "patchline": {
                    "destination": [ "obj-95", 0 ],
                    "source": [ "obj-97", 0 ]
                }
            },
            {
                "patchline": {
                    "destination": [ "obj-100", 0 ],
                    "source": [ "obj-99", 0 ]
                }
            }
        ],
        "parameters": {
            "obj-27": [ "live.dial", "z", 0 ],
            "parameterbanks": {
                "0": {
                    "index": 0,
                    "name": "",
                    "parameters": [ "-", "-", "-", "-", "-", "-", "-", "-" ],
                    "buttons": [ "-", "-", "-", "-", "-", "-", "-", "-" ]
                }
            },
            "inherited_shortname": 1
        },
        "autosave": 0
    }
}