{
    "patcher": {
        "fileversion": 1,
        "appversion": {
            "major": 9,
            "minor": 1,
            "revision": 2,
            "architecture": "x64",
            "modernui": 1
        },
        "classnamespace": "box",
        "rect": [ 59.0, 106.0, 1000.0, 730.0 ],
        "boxes": [
            {
                "box": {
                    "id": "obj-92",
                    "maxclass": "newobj",
                    "numinlets": 1,
                    "numoutlets": 0,
                    "patching_rect": [ 343.3735066652298, 698.7952065467834, 77.0, 22.0 ],
                    "text": "s event bang"
                }
            },
            {
                "box": {
                    "id": "obj-82",
                    "maxclass": "button",
                    "numinlets": 1,
                    "numoutlets": 1,
                    "outlettype": [ "bang" ],
                    "parameter_enable": 0,
                    "patching_rect": [ 343.3735066652298, 640.7831526994705, 24.0, 24.0 ]
                }
            },
            {
                "box": {
                    "id": "obj-78",
                    "maxclass": "newobj",
                    "numinlets": 2,
                    "numoutlets": 2,
                    "outlettype": [ "bang", "" ],
                    "patching_rect": [ 343.3735066652298, 609.6385767459869, 34.0, 22.0 ],
                    "text": "sel 0"
                }
            },
            {
                "box": {
                    "id": "obj-77",
                    "maxclass": "newobj",
                    "numinlets": 1,
                    "numoutlets": 3,
                    "outlettype": [ "", "int", "int" ],
                    "patching_rect": [ 343.3735066652298, 560.2409845590591, 48.0, 22.0 ],
                    "text": "change"
                }
            },
            {
                "box": {
                    "id": "obj-76",
                    "maxclass": "comment",
                    "numinlets": 1,
                    "numoutlets": 0,
                    "patching_rect": [ 379.51808631420135, 529.9156821966171, 117.60843843221664, 20.0 ],
                    "text": "<= 1 if true, 0 if false"
                }
            },
            {
                "box": {
                    "id": "obj-74",
                    "maxclass": "newobj",
                    "numinlets": 2,
                    "numoutlets": 1,
                    "outlettype": [ "int" ],
                    "patching_rect": [ 343.3735066652298, 528.9156821966171, 29.5, 22.0 ],
                    "text": "> 0."
                }
            },
            {
                "box": {
                    "id": "obj-73",
                    "maxclass": "comment",
                    "numinlets": 1,
                    "numoutlets": 0,
                    "patching_rect": [ 178.31325960159302, 556.626526594162, 40.9638569355011, 20.0 ],
                    "text": "<= 0."
                }
            },
            {
                "box": {
                    "id": "obj-71",
                    "maxclass": "multislider",
                    "numinlets": 1,
                    "numoutlets": 2,
                    "outlettype": [ "", "" ],
                    "parameter_enable": 0,
                    "patching_rect": [ 10.843373894691467, 545.7831526994705, 163.0, 119.0 ],
                    "setminmax": [ -100.0, 20.0 ],
                    "setstyle": 4
                }
            },
            {
                "box": {
                    "id": "obj-70",
                    "linecount": 4,
                    "maxclass": "comment",
                    "numinlets": 1,
                    "numoutlets": 0,
                    "patching_rect": [ 379.51808631420135, 439.7590523958206, 150.60241520404816, 62.0 ],
                    "text": "<= calculate the difference between each peakamp~ measurement (current and previous values)"
                }
            },
            {
                "box": {
                    "id": "obj-67",
                    "maxclass": "newobj",
                    "numinlets": 2,
                    "numoutlets": 1,
                    "outlettype": [ "float" ],
                    "patching_rect": [ 343.3735066652298, 478.31327068805695, 29.5, 22.0 ],
                    "text": "- 0."
                }
            },
            {
                "box": {
                    "id": "obj-66",
                    "maxclass": "newobj",
                    "numinlets": 1,
                    "numoutlets": 2,
                    "outlettype": [ "float", "float" ],
                    "patching_rect": [ 343.3735066652298, 439.7590523958206, 29.5, 22.0 ],
                    "text": "t f f"
                }
            },
            {
                "box": {
                    "id": "obj-65",
                    "maxclass": "newobj",
                    "numinlets": 3,
                    "numoutlets": 1,
                    "outlettype": [ "" ],
                    "patching_rect": [ 343.3735066652298, 395.18073749542236, 61.0, 22.0 ],
                    "text": "clip -40 0."
                }
            },
            {
                "box": {
                    "id": "obj-64",
                    "maxclass": "multislider",
                    "numinlets": 1,
                    "numoutlets": 2,
                    "outlettype": [ "", "" ],
                    "parameter_enable": 0,
                    "patching_rect": [ 10.843373894691467, 406.02411139011383, 163.0, 119.0 ],
                    "setminmax": [ -100.0, 20.0 ],
                    "setstyle": 4
                }
            },
            {
                "box": {
                    "id": "obj-63",
                    "maxclass": "comment",
                    "numinlets": 1,
                    "numoutlets": 0,
                    "patching_rect": [ 554.2168879508972, 278.0000110864639, 71.08433997631073, 20.0 ],
                    "presentation_linecount": 2,
                    "text": "slide down"
                }
            },
            {
                "box": {
                    "id": "obj-62",
                    "maxclass": "comment",
                    "numinlets": 1,
                    "numoutlets": 0,
                    "patching_rect": [ 450.138571202755, 278.0000110864639, 54.216869473457336, 20.0 ],
                    "text": "slide up"
                }
            },
            {
                "box": {
                    "format": 6,
                    "id": "obj-58",
                    "maxclass": "flonum",
                    "numinlets": 1,
                    "numoutlets": 2,
                    "outlettype": [ "", "bang" ],
                    "parameter_enable": 0,
                    "patching_rect": [ 556.9036357402802, 300.0000110864639, 50.0, 22.0 ]
                }
            },
            {
                "box": {
                    "id": "obj-56",
                    "maxclass": "number",
                    "numinlets": 1,
                    "numoutlets": 2,
                    "outlettype": [ "", "bang" ],
                    "parameter_enable": 0,
                    "patching_rect": [ 450.138571202755, 300.0000110864639, 42.168676257133484, 22.0 ]
                }
            },
            {
                "box": {
                    "id": "obj-54",
                    "maxclass": "newobj",
                    "numinlets": 3,
                    "numoutlets": 1,
                    "outlettype": [ "float" ],
                    "patching_rect": [ 343.3735066652298, 338.55422937870026, 232.53012907505035, 22.0 ],
                    "text": "slide 5 50"
                }
            },
            {
                "box": {
                    "id": "obj-53",
                    "maxclass": "multislider",
                    "numinlets": 1,
                    "numoutlets": 2,
                    "outlettype": [ "", "" ],
                    "parameter_enable": 0,
                    "patching_rect": [ 10.843373894691467, 255.42169618606567, 163.0, 119.0 ],
                    "setminmax": [ -100.0, 20.0 ],
                    "setstyle": 4
                }
            },
            {
                "box": {
                    "id": "obj-52",
                    "linecount": 4,
                    "maxclass": "comment",
                    "numinlets": 1,
                    "numoutlets": 0,
                    "patching_rect": [ 24.096386432647705, 69.87952065467834, 92.77108776569366, 62.0 ],
                    "text": "<multislider @setminmax -100. 20. @setstyle 4>"
                }
            },
            {
                "box": {
                    "id": "obj-51",
                    "maxclass": "comment",
                    "numinlets": 1,
                    "numoutlets": 0,
                    "patching_rect": [ 392.7710988521576, 203.6144653558731, 304.81928837299347, 20.0 ],
                    "presentation_linecount": 2,
                    "text": "<= convert to decibals, more useful scale of loudness"
                }
            },
            {
                "box": {
                    "id": "obj-50",
                    "maxclass": "newobj",
                    "numinlets": 1,
                    "numoutlets": 1,
                    "outlettype": [ "" ],
                    "patching_rect": [ 343.3735066652298, 202.40964603424072, 39.0, 22.0 ],
                    "text": "atodb"
                }
            },
            {
                "box": {
                    "id": "obj-49",
                    "maxclass": "comment",
                    "numinlets": 1,
                    "numoutlets": 0,
                    "patching_rect": [ 401.2048341035843, 160.24096977710724, 236.1445870399475, 20.0 ],
                    "text": "<= restrict range between 0 and 1"
                }
            },
            {
                "box": {
                    "id": "obj-47",
                    "maxclass": "comment",
                    "numinlets": 1,
                    "numoutlets": 0,
                    "patching_rect": [ 420.48194324970245, 121.68675148487091, 236.1445870399475, 20.0 ],
                    "text": "<= report amplitude very 5 milliseconds"
                }
            },
            {
                "box": {
                    "id": "obj-45",
                    "maxclass": "newobj",
                    "numinlets": 3,
                    "numoutlets": 1,
                    "outlettype": [ "" ],
                    "patching_rect": [ 343.3735066652298, 160.24096977710724, 53.0, 22.0 ],
                    "text": "clip 0. 1."
                }
            },
            {
                "box": {
                    "id": "obj-44",
                    "maxclass": "newobj",
                    "numinlets": 2,
                    "numoutlets": 1,
                    "outlettype": [ "float" ],
                    "patching_rect": [ 343.3735066652298, 120.48193216323853, 75.0, 22.0 ],
                    "text": "peakamp~ 5"
                }
            },
            {
                "box": {
                    "id": "obj-6",
                    "lastchannelcount": 0,
                    "maxclass": "live.gain~",
                    "numinlets": 2,
                    "numoutlets": 5,
                    "outlettype": [ "signal", "signal", "", "float", "list" ],
                    "parameter_enable": 1,
                    "patching_rect": [ 777.1084624528885, 382.7590523958206, 48.0, 136.0 ],
                    "saved_attribute_attributes": {
                        "valueof": {
                            "parameter_longname": "live.gain~",
                            "parameter_mmax": 6.0,
                            "parameter_mmin": -70.0,
                            "parameter_modmode": 3,
                            "parameter_shortname": "live.gain~",
                            "parameter_type": 0,
                            "parameter_unitstyle": 4
                        }
                    },
                    "varname": "live.gain~"
                }
            },
            {
                "box": {
                    "id": "obj-5",
                    "maxclass": "newobj",
                    "numinlets": 1,
                    "numoutlets": 0,
                    "patching_rect": [ 863.8554536104202, 550.2289381027222, 68.0, 22.0 ],
                    "text": "send~ out2"
                }
            },
            {
                "box": {
                    "id": "obj-4",
                    "maxclass": "newobj",
                    "numinlets": 1,
                    "numoutlets": 0,
                    "patching_rect": [ 777.1084624528885, 550.2289381027222, 68.0, 22.0 ],
                    "text": "send~ out1"
                }
            },
            {
                "box": {
                    "id": "obj-2",
                    "maxclass": "newobj",
                    "numinlets": 2,
                    "numoutlets": 1,
                    "outlettype": [ "signal" ],
                    "patching_rect": [ 777.1084624528885, 338.18073749542236, 29.5, 22.0 ],
                    "text": "+~"
                }
            },
            {
                "box": {
                    "id": "obj-1",
                    "maxclass": "newobj",
                    "numinlets": 1,
                    "numoutlets": 1,
                    "outlettype": [ "signal" ],
                    "patching_rect": [ 318.0723009109497, 65.0602433681488, 74.0, 22.0 ],
                    "text": "receive~ in1"
                }
            }
        ],
        "lines": [
            {
                "patchline": {
                    "destination": [ "obj-44", 0 ],
                    "source": [ "obj-1", 0 ]
                }
            },
            {
                "patchline": {
                    "destination": [ "obj-6", 1 ],
                    "order": 0,
                    "source": [ "obj-2", 0 ]
                }
            },
            {
                "patchline": {
                    "destination": [ "obj-6", 0 ],
                    "order": 1,
                    "source": [ "obj-2", 0 ]
                }
            },
            {
                "patchline": {
                    "destination": [ "obj-45", 0 ],
                    "source": [ "obj-44", 0 ]
                }
            },
            {
                "patchline": {
                    "destination": [ "obj-50", 0 ],
                    "source": [ "obj-45", 0 ]
                }
            },
            {
                "patchline": {
                    "destination": [ "obj-53", 0 ],
                    "order": 1,
                    "source": [ "obj-50", 0 ]
                }
            },
            {
                "patchline": {
                    "destination": [ "obj-54", 0 ],
                    "order": 0,
                    "source": [ "obj-50", 0 ]
                }
            },
            {
                "patchline": {
                    "destination": [ "obj-64", 0 ],
                    "order": 1,
                    "source": [ "obj-54", 0 ]
                }
            },
            {
                "patchline": {
                    "destination": [ "obj-65", 0 ],
                    "order": 0,
                    "source": [ "obj-54", 0 ]
                }
            },
            {
                "patchline": {
                    "destination": [ "obj-54", 1 ],
                    "source": [ "obj-56", 0 ]
                }
            },
            {
                "patchline": {
                    "destination": [ "obj-54", 2 ],
                    "source": [ "obj-58", 0 ]
                }
            },
            {
                "patchline": {
                    "destination": [ "obj-4", 0 ],
                    "order": 1,
                    "source": [ "obj-6", 0 ]
                }
            },
            {
                "patchline": {
                    "destination": [ "obj-5", 0 ],
                    "order": 0,
                    "source": [ "obj-6", 0 ]
                }
            },
            {
                "patchline": {
                    "destination": [ "obj-66", 0 ],
                    "source": [ "obj-65", 0 ]
                }
            },
            {
                "patchline": {
                    "destination": [ "obj-67", 0 ],
                    "source": [ "obj-66", 1 ]
                }
            },
            {
                "patchline": {
                    "destination": [ "obj-67", 1 ],
                    "source": [ "obj-66", 0 ]
                }
            },
            {
                "patchline": {
                    "destination": [ "obj-71", 0 ],
                    "order": 1,
                    "source": [ "obj-67", 0 ]
                }
            },
            {
                "patchline": {
                    "destination": [ "obj-74", 0 ],
                    "order": 0,
                    "source": [ "obj-67", 0 ]
                }
            },
            {
                "patchline": {
                    "destination": [ "obj-77", 0 ],
                    "source": [ "obj-74", 0 ]
                }
            },
            {
                "patchline": {
                    "destination": [ "obj-78", 0 ],
                    "source": [ "obj-77", 0 ]
                }
            },
            {
                "patchline": {
                    "destination": [ "obj-82", 0 ],
                    "source": [ "obj-78", 0 ]
                }
            },
            {
                "patchline": {
                    "destination": [ "obj-92", 0 ],
                    "source": [ "obj-82", 0 ]
                }
            }
        ],
        "parameters": {
            "obj-6": [ "live.gain~", "live.gain~", 0 ],
            "parameterbanks": {
                "0": {
                    "index": 0,
                    "name": "",
                    "parameters": [ "-", "-", "-", "-", "-", "-", "-", "-" ],
                    "buttons": [ "-", "-", "-", "-", "-", "-", "-", "-" ]
                }
            },
            "inherited_shortname": 1
        },
        "autosave": 0
    }
}