{
    "patcher": {
        "fileversion": 1,
        "appversion": {
            "major": 9,
            "minor": 1,
            "revision": 2,
            "architecture": "x64",
            "modernui": 1
        },
        "classnamespace": "box",
        "rect": [ 35.0, 84.0, 699.0, 841.0 ],
        "boxes": [
            {
                "box": {
                    "format": 6,
                    "id": "obj-125",
                    "maxclass": "flonum",
                    "numinlets": 1,
                    "numoutlets": 2,
                    "outlettype": [ "", "bang" ],
                    "parameter_enable": 0,
                    "patching_rect": [ 1224.6914558410645, 432.09879994392395, 50.0, 22.0 ]
                }
            },
            {
                "box": {
                    "format": 6,
                    "id": "obj-123",
                    "maxclass": "flonum",
                    "numinlets": 1,
                    "numoutlets": 2,
                    "outlettype": [ "", "bang" ],
                    "parameter_enable": 0,
                    "patching_rect": [ 30.0, 30.0, 50.0, 22.0 ]
                }
            },
            {
                "box": {
                    "id": "obj-121",
                    "maxclass": "message",
                    "numinlets": 2,
                    "numoutlets": 1,
                    "outlettype": [ "" ],
                    "patching_rect": [ 1224.5116275846958, 467.90127193927765, 165.0, 22.0 ],
                    "text": "range 0. 1000., setdomain $1"
                }
            },
            {
                "box": {
                    "color": [ 0.784314, 0.145098, 0.023529, 1.0 ],
                    "id": "obj-119",
                    "maxclass": "newobj",
                    "numinlets": 1,
                    "numoutlets": 0,
                    "patching_rect": [ 1244.444543838501, 696.2963519096375, 52.0, 22.0 ],
                    "text": "s carrier"
                }
            },
            {
                "box": {
                    "id": "obj-118",
                    "maxclass": "newobj",
                    "numinlets": 3,
                    "numoutlets": 2,
                    "outlettype": [ "", "bang" ],
                    "patching_rect": [ 1244.444543838501, 650.6173359155655, 40.0, 22.0 ],
                    "text": "line"
                }
            },
            {
                "box": {
                    "id": "obj-117",
                    "maxclass": "comment",
                    "numinlets": 1,
                    "numoutlets": 0,
                    "patching_rect": [ 1313.5803518295288, 493.8271999359131, 70.37037599086761, 20.0 ],
                    "text": "<function>"
                }
            },
            {
                "box": {
                    "id": "obj-115",
                    "maxclass": "button",
                    "numinlets": 1,
                    "numoutlets": 1,
                    "outlettype": [ "bang" ],
                    "parameter_enable": 0,
                    "patching_rect": [ 1184.0, 466.90127193927765, 24.0, 24.0 ]
                }
            },
            {
                "box": {
                    "addpoints": [ 0.0, 63.167312939961754, 0, 378.7237985083391, 1000.0, 0, 719.9999999999987, 63.167312939961754, 0 ],
                    "classic_curve": 1,
                    "domain": 720.0,
                    "id": "obj-113",
                    "maxclass": "function",
                    "numinlets": 1,
                    "numoutlets": 4,
                    "outlettype": [ "float", "", "", "bang" ],
                    "parameter_enable": 0,
                    "patching_rect": [ 1184.0, 521.8487083911896, 200.0, 100.0 ],
                    "range": [ 0.0, 1000.0 ]
                }
            },
            {
                "box": {
                    "id": "obj-111",
                    "linecount": 5,
                    "maxclass": "comment",
                    "numinlets": 1,
                    "numoutlets": 0,
                    "patching_rect": [ 1621.0, 216.0, 150.0, 75.0 ],
                    "text": "shift + click to save or update a preset\n\nClick on a box to recall preset"
                }
            },
            {
                "box": {
                    "id": "obj-109",
                    "maxclass": "comment",
                    "numinlets": 1,
                    "numoutlets": 0,
                    "patching_rect": [ 1738.0, 158.0, 62.0, 20.0 ],
                    "text": "<preset>"
                }
            },
            {
                "box": {
                    "id": "obj-107",
                    "maxclass": "preset",
                    "numinlets": 1,
                    "numoutlets": 5,
                    "outlettype": [ "preset", "int", "preset", "int", "" ],
                    "patching_rect": [ 1621.0, 157.0, 100.0, 40.0 ],
                    "preset_data": [
                        {
                            "number": 1,
                            "data": [ 4, "obj-3", "crosspatch", "mark", 4, "obj-3", "crosspatch", "clearmarked", 5, "obj-12", "number", "float", 500.0, 5, "obj-16", "number", "float", 1000.0, 5, "obj-25", "number", "float", 0.5, 5, "obj-61", "number", "float", 500.0, 5, "obj-59", "number", "float", 1000.0, 5, "obj-49", "number", "float", 0.25, 5, "obj-98", "number", "float", 500.0, 5, "obj-96", "number", "float", 1000.0, 5, "obj-90", "number", "float", 0.25 ]
                        }
                    ]
                }
            },
            {
                "box": {
                    "id": "obj-106",
                    "linecount": 5,
                    "maxclass": "message",
                    "numinlets": 2,
                    "numoutlets": 1,
                    "outlettype": [ "" ],
                    "patching_rect": [ 805.5, 691.0, 101.0, 105.0 ],
                    "text": ";\r\nrm.amplitude 0.5;\r\nmodulator 1000.;\r\ncarrier 500.;\r\nmod.depth 0.25;\r\n"
                }
            },
            {
                "box": {
                    "id": "obj-105",
                    "maxclass": "newobj",
                    "numinlets": 2,
                    "numoutlets": 1,
                    "outlettype": [ "signal" ],
                    "patching_rect": [ 1240.0, 342.0, 40.0, 22.0 ],
                    "text": "*~ 0.5"
                }
            },
            {
                "box": {
                    "color": [ 0.0, 0.533333, 0.168627, 1.0 ],
                    "id": "obj-104",
                    "maxclass": "newobj",
                    "numinlets": 2,
                    "numoutlets": 1,
                    "outlettype": [ "signal" ],
                    "patching_rect": [ 1240.0, 273.0, 165.0, 22.0 ],
                    "text": "+~"
                }
            },
            {
                "box": {
                    "id": "obj-103",
                    "maxclass": "newobj",
                    "numinlets": 2,
                    "numoutlets": 1,
                    "outlettype": [ "signal" ],
                    "patching_rect": [ 1386.0, 239.8907368183136, 133.0, 22.0 ],
                    "text": "*~"
                }
            },
            {
                "box": {
                    "id": "obj-102",
                    "maxclass": "comment",
                    "numinlets": 1,
                    "numoutlets": 0,
                    "patching_rect": [ 1216.0, 25.0, 150.0, 20.0 ],
                    "text": "Frequency modulation FM"
                }
            },
            {
                "box": {
                    "id": "obj-87",
                    "maxclass": "comment",
                    "numinlets": 1,
                    "numoutlets": 0,
                    "patching_rect": [ 1416.0, 343.0, 106.39534503221512, 20.0 ],
                    "text": "<spectroscope>"
                }
            },
            {
                "box": {
                    "id": "obj-88",
                    "maxclass": "spectroscope~",
                    "numinlets": 2,
                    "numoutlets": 1,
                    "outlettype": [ "" ],
                    "patching_rect": [ 1341.0, 371.0, 174.0, 71.0 ]
                }
            },
            {
                "box": {
                    "id": "obj-89",
                    "maxclass": "comment",
                    "numinlets": 1,
                    "numoutlets": 0,
                    "patching_rect": [ 1471.0, 158.0, 26.0, 20.0 ],
                    "text": "<f>"
                }
            },
            {
                "box": {
                    "format": 6,
                    "id": "obj-90",
                    "maxclass": "flonum",
                    "numinlets": 1,
                    "numoutlets": 2,
                    "outlettype": [ "", "bang" ],
                    "parameter_enable": 0,
                    "patching_rect": [ 1500.0, 157.0, 50.0, 22.0 ]
                }
            },
            {
                "box": {
                    "id": "obj-91",
                    "maxclass": "newobj",
                    "numinlets": 0,
                    "numoutlets": 1,
                    "outlettype": [ "" ],
                    "patching_rect": [ 1500.0, 119.0, 73.0, 22.0 ],
                    "text": "r mod.depth"
                }
            },
            {
                "box": {
                    "id": "obj-92",
                    "maxclass": "comment",
                    "numinlets": 1,
                    "numoutlets": 0,
                    "patching_rect": [ 1437.0, 158.0, 22.674417793750763, 20.0 ],
                    "text": "fm"
                }
            },
            {
                "box": {
                    "id": "obj-93",
                    "maxclass": "comment",
                    "numinlets": 1,
                    "numoutlets": 0,
                    "patching_rect": [ 1298.0, 158.0, 18.023255169391632, 20.0 ],
                    "text": "fc"
                }
            },
            {
                "box": {
                    "id": "obj-94",
                    "maxclass": "comment",
                    "numinlets": 1,
                    "numoutlets": 0,
                    "patching_rect": [ 1358.0, 158.0, 26.0, 20.0 ],
                    "text": "<f>"
                }
            },
            {
                "box": {
                    "color": [ 0.466667, 0.254902, 0.607843, 1.0 ],
                    "id": "obj-95",
                    "maxclass": "newobj",
                    "numinlets": 0,
                    "numoutlets": 1,
                    "outlettype": [ "" ],
                    "patching_rect": [ 1386.0, 119.0, 69.0, 22.0 ],
                    "text": "r modulator"
                }
            },
            {
                "box": {
                    "format": 6,
                    "id": "obj-96",
                    "maxclass": "flonum",
                    "numinlets": 1,
                    "numoutlets": 2,
                    "outlettype": [ "", "bang" ],
                    "parameter_enable": 0,
                    "patching_rect": [ 1386.0, 157.0, 50.0, 22.0 ]
                }
            },
            {
                "box": {
                    "id": "obj-97",
                    "maxclass": "comment",
                    "numinlets": 1,
                    "numoutlets": 0,
                    "patching_rect": [ 1212.0, 158.0, 26.0, 20.0 ],
                    "text": "<f>"
                }
            },
            {
                "box": {
                    "format": 6,
                    "id": "obj-98",
                    "maxclass": "flonum",
                    "numinlets": 1,
                    "numoutlets": 2,
                    "outlettype": [ "", "bang" ],
                    "parameter_enable": 0,
                    "patching_rect": [ 1240.0, 157.0, 50.0, 22.0 ]
                }
            },
            {
                "box": {
                    "color": [ 0.784314, 0.145098, 0.023529, 1.0 ],
                    "id": "obj-99",
                    "maxclass": "newobj",
                    "numinlets": 0,
                    "numoutlets": 1,
                    "outlettype": [ "" ],
                    "patching_rect": [ 1240.0, 119.0, 50.0, 22.0 ],
                    "text": "r carrier"
                }
            },
            {
                "box": {
                    "color": [ 0.466667, 0.254902, 0.607843, 1.0 ],
                    "id": "obj-100",
                    "maxclass": "newobj",
                    "numinlets": 2,
                    "numoutlets": 1,
                    "outlettype": [ "signal" ],
                    "patching_rect": [ 1386.0, 200.0, 43.0, 22.0 ],
                    "text": "cycle~"
                }
            },
            {
                "box": {
                    "color": [ 0.784314, 0.145098, 0.023529, 1.0 ],
                    "id": "obj-101",
                    "maxclass": "newobj",
                    "numinlets": 2,
                    "numoutlets": 1,
                    "outlettype": [ "signal" ],
                    "patching_rect": [ 1240.0, 310.0, 44.0, 22.0 ],
                    "text": "cycle~"
                }
            },
            {
                "box": {
                    "id": "obj-77",
                    "maxclass": "newobj",
                    "numinlets": 2,
                    "numoutlets": 1,
                    "outlettype": [ "signal" ],
                    "patching_rect": [ 612.0, 326.8907368183136, 40.0, 22.0 ],
                    "text": "*~ 0.5"
                }
            },
            {
                "box": {
                    "id": "obj-76",
                    "maxclass": "newobj",
                    "numinlets": 2,
                    "numoutlets": 1,
                    "outlettype": [ "signal" ],
                    "patching_rect": [ 612.0, 299.0, 165.0, 22.0 ],
                    "text": "*~"
                }
            },
            {
                "box": {
                    "id": "obj-75",
                    "linecount": 2,
                    "maxclass": "comment",
                    "numinlets": 1,
                    "numoutlets": 0,
                    "patching_rect": [ 897.0, 274.67225217819214, 150.0, 34.0 ],
                    "text": "scale the level of modulating oscillator"
                }
            },
            {
                "box": {
                    "id": "obj-73",
                    "linecount": 4,
                    "maxclass": "comment",
                    "numinlets": 1,
                    "numoutlets": 0,
                    "patching_rect": [ 910.0, 322.0, 150.0, 62.0 ],
                    "text": "DC offset changes opposite to the depth of the modulator, to keep amplitude  at a level of 1"
                }
            },
            {
                "box": {
                    "id": "obj-71",
                    "maxclass": "newobj",
                    "numinlets": 1,
                    "numoutlets": 1,
                    "outlettype": [ "signal" ],
                    "patching_rect": [ 947.0, 239.8907368183136, 31.0, 22.0 ],
                    "text": "sig~"
                }
            },
            {
                "box": {
                    "id": "obj-70",
                    "maxclass": "newobj",
                    "numinlets": 2,
                    "numoutlets": 1,
                    "outlettype": [ "float" ],
                    "patching_rect": [ 947.0, 199.8907368183136, 29.5, 22.0 ],
                    "text": "!- 1."
                }
            },
            {
                "box": {
                    "id": "obj-69",
                    "maxclass": "newobj",
                    "numinlets": 2,
                    "numoutlets": 1,
                    "outlettype": [ "signal" ],
                    "patching_rect": [ 758.0, 273.0, 133.0, 22.0 ],
                    "text": "+~"
                }
            },
            {
                "box": {
                    "id": "obj-68",
                    "maxclass": "newobj",
                    "numinlets": 1,
                    "numoutlets": 1,
                    "outlettype": [ "signal" ],
                    "patching_rect": [ 872.0, 199.8907368183136, 31.0, 22.0 ],
                    "text": "sig~"
                }
            },
            {
                "box": {
                    "id": "obj-67",
                    "maxclass": "newobj",
                    "numinlets": 2,
                    "numoutlets": 1,
                    "outlettype": [ "signal" ],
                    "patching_rect": [ 758.0, 239.8907368183136, 133.0, 22.0 ],
                    "text": "*~"
                }
            },
            {
                "box": {
                    "id": "obj-66",
                    "maxclass": "comment",
                    "numinlets": 1,
                    "numoutlets": 0,
                    "patching_rect": [ 595.0, 25.210082530975342, 150.0, 20.0 ],
                    "text": "Amlitude modulation AM"
                }
            },
            {
                "box": {
                    "id": "obj-45",
                    "maxclass": "comment",
                    "numinlets": 1,
                    "numoutlets": 0,
                    "patching_rect": [ 788.0, 343.0, 106.39534503221512, 20.0 ],
                    "text": "<spectroscope>"
                }
            },
            {
                "box": {
                    "id": "obj-46",
                    "maxclass": "spectroscope~",
                    "numinlets": 2,
                    "numoutlets": 1,
                    "outlettype": [ "" ],
                    "patching_rect": [ 713.3953450322151, 371.0, 174.0, 71.0 ]
                }
            },
            {
                "box": {
                    "id": "obj-48",
                    "maxclass": "comment",
                    "numinlets": 1,
                    "numoutlets": 0,
                    "patching_rect": [ 843.0, 157.8907368183136, 26.0, 20.0 ],
                    "text": "<f>"
                }
            },
            {
                "box": {
                    "format": 6,
                    "id": "obj-49",
                    "maxclass": "flonum",
                    "numinlets": 1,
                    "numoutlets": 2,
                    "outlettype": [ "", "bang" ],
                    "parameter_enable": 0,
                    "patching_rect": [ 872.0, 156.8907368183136, 50.0, 22.0 ]
                }
            },
            {
                "box": {
                    "id": "obj-51",
                    "maxclass": "newobj",
                    "numinlets": 0,
                    "numoutlets": 1,
                    "outlettype": [ "" ],
                    "patching_rect": [ 872.0, 118.8907368183136, 73.0, 22.0 ],
                    "text": "r mod.depth"
                }
            },
            {
                "box": {
                    "id": "obj-52",
                    "maxclass": "comment",
                    "numinlets": 1,
                    "numoutlets": 0,
                    "patching_rect": [ 809.0, 157.8907368183136, 22.674417793750763, 20.0 ],
                    "text": "fm"
                }
            },
            {
                "box": {
                    "id": "obj-53",
                    "maxclass": "comment",
                    "numinlets": 1,
                    "numoutlets": 0,
                    "patching_rect": [ 670.0, 157.8907368183136, 18.023255169391632, 20.0 ],
                    "text": "fc"
                }
            },
            {
                "box": {
                    "id": "obj-54",
                    "maxclass": "comment",
                    "numinlets": 1,
                    "numoutlets": 0,
                    "patching_rect": [ 730.0, 157.8907368183136, 26.0, 20.0 ],
                    "text": "<f>"
                }
            },
            {
                "box": {
                    "color": [ 0.466667, 0.254902, 0.607843, 1.0 ],
                    "id": "obj-58",
                    "maxclass": "newobj",
                    "numinlets": 0,
                    "numoutlets": 1,
                    "outlettype": [ "" ],
                    "patching_rect": [ 758.0, 118.8907368183136, 69.0, 22.0 ],
                    "text": "r modulator"
                }
            },
            {
                "box": {
                    "format": 6,
                    "id": "obj-59",
                    "maxclass": "flonum",
                    "numinlets": 1,
                    "numoutlets": 2,
                    "outlettype": [ "", "bang" ],
                    "parameter_enable": 0,
                    "patching_rect": [ 758.0, 156.8907368183136, 50.0, 22.0 ]
                }
            },
            {
                "box": {
                    "id": "obj-60",
                    "maxclass": "comment",
                    "numinlets": 1,
                    "numoutlets": 0,
                    "patching_rect": [ 584.0, 157.8907368183136, 26.0, 20.0 ],
                    "text": "<f>"
                }
            },
            {
                "box": {
                    "format": 6,
                    "id": "obj-61",
                    "maxclass": "flonum",
                    "numinlets": 1,
                    "numoutlets": 2,
                    "outlettype": [ "", "bang" ],
                    "parameter_enable": 0,
                    "patching_rect": [ 612.0, 156.8907368183136, 50.0, 22.0 ]
                }
            },
            {
                "box": {
                    "color": [ 0.784314, 0.145098, 0.023529, 1.0 ],
                    "id": "obj-62",
                    "maxclass": "newobj",
                    "numinlets": 0,
                    "numoutlets": 1,
                    "outlettype": [ "" ],
                    "patching_rect": [ 612.0, 118.8907368183136, 50.0, 22.0 ],
                    "text": "r carrier"
                }
            },
            {
                "box": {
                    "color": [ 0.466667, 0.254902, 0.607843, 1.0 ],
                    "id": "obj-63",
                    "maxclass": "newobj",
                    "numinlets": 2,
                    "numoutlets": 1,
                    "outlettype": [ "signal" ],
                    "patching_rect": [ 758.0, 199.8907368183136, 43.0, 22.0 ],
                    "text": "cycle~"
                }
            },
            {
                "box": {
                    "color": [ 0.784314, 0.145098, 0.023529, 1.0 ],
                    "id": "obj-64",
                    "maxclass": "newobj",
                    "numinlets": 2,
                    "numoutlets": 1,
                    "outlettype": [ "signal" ],
                    "patching_rect": [ 612.0, 199.8907368183136, 43.0, 22.0 ],
                    "text": "cycle~"
                }
            },
            {
                "box": {
                    "id": "obj-40",
                    "linecount": 5,
                    "maxclass": "message",
                    "numinlets": 2,
                    "numoutlets": 1,
                    "outlettype": [ "" ],
                    "patching_rect": [ 687.394905090332, 691.0, 101.0, 105.0 ],
                    "text": ";\r\nrm.amplitude 0.5;\r\nmodulator 2.;\r\ncarrier 500.;\r\nmod.depth 15.;\r\n"
                }
            },
            {
                "box": {
                    "id": "obj-31",
                    "maxclass": "comment",
                    "numinlets": 1,
                    "numoutlets": 0,
                    "patching_rect": [ 422.07980513572693, 521.8487083911896, 106.39534503221512, 20.0 ],
                    "text": "<spectroscope>"
                }
            },
            {
                "box": {
                    "id": "obj-32",
                    "maxclass": "spectroscope~",
                    "numinlets": 2,
                    "numoutlets": 1,
                    "outlettype": [ "" ],
                    "patching_rect": [ 354.6218276023865, 543.6974465847015, 174.0, 71.0 ]
                }
            },
            {
                "box": {
                    "id": "obj-33",
                    "maxclass": "newobj",
                    "numinlets": 2,
                    "numoutlets": 1,
                    "outlettype": [ "signal" ],
                    "patching_rect": [ 253.17225217819214, 497.4789619445801, 165.51162266731262, 22.0 ],
                    "text": "*~"
                }
            },
            {
                "box": {
                    "id": "obj-34",
                    "maxclass": "newobj",
                    "numinlets": 2,
                    "numoutlets": 1,
                    "outlettype": [ "signal" ],
                    "patching_rect": [ 399.3907308578491, 456.3024938106537, 132.9534842967987, 22.0 ],
                    "text": "*~"
                }
            },
            {
                "box": {
                    "color": [ 0.466667, 0.254902, 0.607843, 1.0 ],
                    "id": "obj-35",
                    "maxclass": "newobj",
                    "numinlets": 2,
                    "numoutlets": 1,
                    "outlettype": [ "signal" ],
                    "patching_rect": [ 399.3907308578491, 416.806697845459, 43.0, 22.0 ],
                    "text": "cycle~"
                }
            },
            {
                "box": {
                    "color": [ 0.784314, 0.145098, 0.023529, 1.0 ],
                    "id": "obj-36",
                    "maxclass": "newobj",
                    "numinlets": 3,
                    "numoutlets": 1,
                    "outlettype": [ "signal" ],
                    "patching_rect": [ 253.17225217819214, 416.806697845459, 40.0, 22.0 ],
                    "text": "rect~"
                }
            },
            {
                "box": {
                    "id": "obj-30",
                    "maxclass": "comment",
                    "numinlets": 1,
                    "numoutlets": 0,
                    "patching_rect": [ 290.7562851905823, 305.04199862480164, 106.39534503221512, 20.0 ],
                    "text": "<spectroscope>"
                }
            },
            {
                "box": {
                    "id": "obj-28",
                    "maxclass": "spectroscope~",
                    "numinlets": 2,
                    "numoutlets": 1,
                    "outlettype": [ "" ],
                    "patching_rect": [ 223.5293984413147, 326.8907368183136, 174.0, 71.0 ]
                }
            },
            {
                "box": {
                    "id": "obj-27",
                    "maxclass": "newobj",
                    "numinlets": 2,
                    "numoutlets": 1,
                    "outlettype": [ "signal" ],
                    "patching_rect": [ 121.84873223304749, 280.67225217819214, 165.51162266731262, 22.0 ],
                    "text": "*~"
                }
            },
            {
                "box": {
                    "id": "obj-26",
                    "maxclass": "comment",
                    "numinlets": 1,
                    "numoutlets": 0,
                    "patching_rect": [ 352.9411554336548, 157.9831838607788, 26.0, 20.0 ],
                    "text": "<f>"
                }
            },
            {
                "box": {
                    "format": 6,
                    "id": "obj-25",
                    "maxclass": "flonum",
                    "numinlets": 1,
                    "numoutlets": 2,
                    "outlettype": [ "", "bang" ],
                    "parameter_enable": 0,
                    "patching_rect": [ 382.35291838645935, 157.14284777641296, 50.0, 22.0 ]
                }
            },
            {
                "box": {
                    "id": "obj-23",
                    "maxclass": "newobj",
                    "numinlets": 2,
                    "numoutlets": 1,
                    "outlettype": [ "signal" ],
                    "patching_rect": [ 268.06721091270447, 239.49578404426575, 132.9534842967987, 22.0 ],
                    "text": "*~"
                }
            },
            {
                "box": {
                    "id": "obj-22",
                    "maxclass": "newobj",
                    "numinlets": 0,
                    "numoutlets": 1,
                    "outlettype": [ "" ],
                    "patching_rect": [ 382.35291838645935, 119.32772397994995, 85.0, 22.0 ],
                    "text": "r rm.amplitude"
                }
            },
            {
                "box": {
                    "id": "obj-21",
                    "maxclass": "comment",
                    "numinlets": 1,
                    "numoutlets": 0,
                    "patching_rect": [ 319.327712059021, 157.9831838607788, 22.674417793750763, 20.0 ],
                    "text": "fm"
                }
            },
            {
                "box": {
                    "id": "obj-20",
                    "maxclass": "comment",
                    "numinlets": 1,
                    "numoutlets": 0,
                    "patching_rect": [ 179.83192205429077, 157.9831838607788, 18.023255169391632, 20.0 ],
                    "text": "fc"
                }
            },
            {
                "box": {
                    "id": "obj-18",
                    "maxclass": "comment",
                    "numinlets": 1,
                    "numoutlets": 0,
                    "patching_rect": [ 240.3361201286316, 157.9831838607788, 26.0, 20.0 ],
                    "text": "<f>"
                }
            },
            {
                "box": {
                    "color": [ 0.466667, 0.254902, 0.607843, 1.0 ],
                    "id": "obj-17",
                    "maxclass": "newobj",
                    "numinlets": 0,
                    "numoutlets": 1,
                    "outlettype": [ "" ],
                    "patching_rect": [ 268.06721091270447, 119.32772397994995, 69.0, 22.0 ],
                    "text": "r modulator"
                }
            },
            {
                "box": {
                    "format": 6,
                    "id": "obj-16",
                    "maxclass": "flonum",
                    "numinlets": 1,
                    "numoutlets": 2,
                    "outlettype": [ "", "bang" ],
                    "parameter_enable": 0,
                    "patching_rect": [ 268.06721091270447, 157.14284777641296, 50.0, 22.0 ]
                }
            },
            {
                "box": {
                    "id": "obj-14",
                    "maxclass": "comment",
                    "numinlets": 1,
                    "numoutlets": 0,
                    "patching_rect": [ 94.11764144897461, 157.9831838607788, 26.0, 20.0 ],
                    "text": "<f>"
                }
            },
            {
                "box": {
                    "format": 6,
                    "id": "obj-12",
                    "maxclass": "flonum",
                    "numinlets": 1,
                    "numoutlets": 2,
                    "outlettype": [ "", "bang" ],
                    "parameter_enable": 0,
                    "patching_rect": [ 121.84873223304749, 156.9831838607788, 50.0, 22.0 ]
                }
            },
            {
                "box": {
                    "color": [ 0.784314, 0.145098, 0.023529, 1.0 ],
                    "id": "obj-10",
                    "maxclass": "newobj",
                    "numinlets": 0,
                    "numoutlets": 1,
                    "outlettype": [ "" ],
                    "patching_rect": [ 121.84873223304749, 119.32772397994995, 50.0, 22.0 ],
                    "text": "r carrier"
                }
            },
            {
                "box": {
                    "color": [ 0.466667, 0.254902, 0.607843, 1.0 ],
                    "id": "obj-7",
                    "maxclass": "newobj",
                    "numinlets": 2,
                    "numoutlets": 1,
                    "outlettype": [ "signal" ],
                    "patching_rect": [ 268.06721091270447, 199.99998807907104, 43.0, 22.0 ],
                    "text": "cycle~"
                }
            },
            {
                "box": {
                    "color": [ 0.784314, 0.145098, 0.023529, 1.0 ],
                    "id": "obj-6",
                    "maxclass": "newobj",
                    "numinlets": 2,
                    "numoutlets": 1,
                    "outlettype": [ "signal" ],
                    "patching_rect": [ 121.84873223304749, 199.99998807907104, 43.0, 22.0 ],
                    "text": "cycle~"
                }
            },
            {
                "box": {
                    "id": "obj-5",
                    "linecount": 5,
                    "maxclass": "comment",
                    "numinlets": 1,
                    "numoutlets": 0,
                    "patching_rect": [ 113.44537138938904, 25.210082530975342, 150.0, 75.0 ],
                    "text": "Ring Modulation RM: Modulate the amplitude of one oscillator by multiplying it against another oscillator"
                }
            },
            {
                "box": {
                    "connections": [
                        {
                            "in": 0,
                            "out": 0,
                            "gain": 1.0
                        },
                        {
                            "in": 2,
                            "out": 0,
                            "gain": 1.0
                        },
                        {
                            "in": 3,
                            "out": 1,
                            "gain": 1.0
                        }
                    ],
                    "dividers": "none",
                    "fontface": 0,
                    "fontname": "Arial",
                    "fontsize": 12.0,
                    "id": "obj-3",
                    "incolormap": "none",
                    "inlabels": [ "RM.sine", "RM.square", "AM", "FM" ],
                    "maxclass": "crosspatch",
                    "numinlets": 1,
                    "numins": 4,
                    "numoutlets": 2,
                    "numouts": 2,
                    "outcolormap": "none",
                    "outlabels": [ "L", "R" ],
                    "outlettype": [ "", "dictionary" ],
                    "parameter_enable": 0,
                    "patching_rect": [ 138.68387484550476, 819.5122146606445, 280.0, 80.0 ]
                }
            },
            {
                "box": {
                    "id": "obj-2",
                    "linecount": 4,
                    "maxclass": "comment",
                    "numinlets": 1,
                    "numoutlets": 0,
                    "patching_rect": [ 121.84873223304749, 750.4201233386993, 150.0, 62.0 ],
                    "text": "<crosspatch @numins 4 @numouts 2 @inlabels RM.sine RM.square AM FM @outlabels L R>"
                }
            },
            {
                "box": {
                    "id": "obj-57",
                    "maxclass": "newobj",
                    "numinlets": 1,
                    "numoutlets": 0,
                    "patching_rect": [ 443.697452545166, 721.8486964702606, 68.0, 22.0 ],
                    "text": "send~ out2"
                }
            },
            {
                "box": {
                    "id": "obj-56",
                    "maxclass": "newobj",
                    "numinlets": 1,
                    "numoutlets": 0,
                    "patching_rect": [ 117.64705181121826, 699.9999582767487, 68.0, 22.0 ],
                    "text": "send~ out1"
                }
            },
            {
                "box": {
                    "id": "obj-55",
                    "maxclass": "newobj",
                    "numinlets": 4,
                    "numoutlets": 3,
                    "outlettype": [ "signal", "signal", "" ],
                    "patching_rect": [ 118.0, 626.8907189369202, 670.394905090332, 22.0 ],
                    "text": "matrix~ 4 2"
                }
            }
        ],
        "lines": [
            {
                "patchline": {
                    "destination": [ "obj-12", 0 ],
                    "source": [ "obj-10", 0 ]
                }
            },
            {
                "patchline": {
                    "destination": [ "obj-103", 0 ],
                    "source": [ "obj-100", 0 ]
                }
            },
            {
                "patchline": {
                    "destination": [ "obj-105", 0 ],
                    "source": [ "obj-101", 0 ]
                }
            },
            {
                "patchline": {
                    "destination": [ "obj-104", 1 ],
                    "source": [ "obj-103", 0 ]
                }
            },
            {
                "patchline": {
                    "destination": [ "obj-101", 0 ],
                    "source": [ "obj-104", 0 ]
                }
            },
            {
                "patchline": {
                    "destination": [ "obj-55", 3 ],
                    "order": 1,
                    "source": [ "obj-105", 0 ]
                }
            },
            {
                "patchline": {
                    "destination": [ "obj-88", 0 ],
                    "order": 0,
                    "source": [ "obj-105", 0 ]
                }
            },
            {
                "patchline": {
                    "destination": [ "obj-118", 0 ],
                    "source": [ "obj-113", 1 ]
                }
            },
            {
                "patchline": {
                    "destination": [ "obj-113", 0 ],
                    "source": [ "obj-115", 0 ]
                }
            },
            {
                "patchline": {
                    "destination": [ "obj-119", 0 ],
                    "source": [ "obj-118", 0 ]
                }
            },
            {
                "patchline": {
                    "destination": [ "obj-36", 0 ],
                    "order": 0,
                    "source": [ "obj-12", 0 ]
                }
            },
            {
                "patchline": {
                    "destination": [ "obj-6", 0 ],
                    "order": 1,
                    "source": [ "obj-12", 0 ]
                }
            },
            {
                "patchline": {
                    "destination": [ "obj-113", 0 ],
                    "source": [ "obj-121", 0 ]
                }
            },
            {
                "patchline": {
                    "destination": [ "obj-121", 0 ],
                    "source": [ "obj-125", 0 ]
                }
            },
            {
                "patchline": {
                    "destination": [ "obj-35", 0 ],
                    "order": 0,
                    "source": [ "obj-16", 0 ]
                }
            },
            {
                "patchline": {
                    "destination": [ "obj-7", 0 ],
                    "order": 1,
                    "source": [ "obj-16", 0 ]
                }
            },
            {
                "patchline": {
                    "destination": [ "obj-16", 0 ],
                    "source": [ "obj-17", 0 ]
                }
            },
            {
                "patchline": {
                    "destination": [ "obj-25", 0 ],
                    "source": [ "obj-22", 0 ]
                }
            },
            {
                "patchline": {
                    "destination": [ "obj-27", 1 ],
                    "source": [ "obj-23", 0 ]
                }
            },
            {
                "patchline": {
                    "destination": [ "obj-23", 1 ],
                    "order": 1,
                    "source": [ "obj-25", 0 ]
                }
            },
            {
                "patchline": {
                    "destination": [ "obj-34", 1 ],
                    "order": 0,
                    "source": [ "obj-25", 0 ]
                }
            },
            {
                "patchline": {
                    "destination": [ "obj-28", 0 ],
                    "order": 0,
                    "source": [ "obj-27", 0 ]
                }
            },
            {
                "patchline": {
                    "destination": [ "obj-55", 0 ],
                    "order": 1,
                    "source": [ "obj-27", 0 ]
                }
            },
            {
                "patchline": {
                    "destination": [ "obj-55", 0 ],
                    "midpoints": [ 148.18387484550476, 900.540947675705, 103.50510120391846, 900.540947675705, 103.50510120391846, 621.540947675705, 127.5, 621.540947675705 ],
                    "source": [ "obj-3", 0 ]
                }
            },
            {
                "patchline": {
                    "destination": [ "obj-32", 0 ],
                    "order": 0,
                    "source": [ "obj-33", 0 ]
                }
            },
            {
                "patchline": {
                    "destination": [ "obj-55", 1 ],
                    "order": 1,
                    "source": [ "obj-33", 0 ]
                }
            },
            {
                "patchline": {
                    "destination": [ "obj-33", 1 ],
                    "source": [ "obj-34", 0 ]
                }
            },
            {
                "patchline": {
                    "destination": [ "obj-34", 0 ],
                    "source": [ "obj-35", 0 ]
                }
            },
            {
                "patchline": {
                    "destination": [ "obj-33", 0 ],
                    "source": [ "obj-36", 0 ]
                }
            },
            {
                "patchline": {
                    "destination": [ "obj-68", 0 ],
                    "order": 1,
                    "source": [ "obj-49", 0 ]
                }
            },
            {
                "patchline": {
                    "destination": [ "obj-70", 0 ],
                    "order": 0,
                    "source": [ "obj-49", 0 ]
                }
            },
            {
                "patchline": {
                    "destination": [ "obj-49", 0 ],
                    "source": [ "obj-51", 0 ]
                }
            },
            {
                "patchline": {
                    "destination": [ "obj-56", 0 ],
                    "source": [ "obj-55", 0 ]
                }
            },
            {
                "patchline": {
                    "destination": [ "obj-57", 0 ],
                    "source": [ "obj-55", 1 ]
                }
            },
            {
                "patchline": {
                    "destination": [ "obj-59", 0 ],
                    "source": [ "obj-58", 0 ]
                }
            },
            {
                "patchline": {
                    "destination": [ "obj-63", 0 ],
                    "source": [ "obj-59", 0 ]
                }
            },
            {
                "patchline": {
                    "destination": [ "obj-27", 0 ],
                    "source": [ "obj-6", 0 ]
                }
            },
            {
                "patchline": {
                    "destination": [ "obj-64", 0 ],
                    "source": [ "obj-61", 0 ]
                }
            },
            {
                "patchline": {
                    "destination": [ "obj-61", 0 ],
                    "source": [ "obj-62", 0 ]
                }
            },
            {
                "patchline": {
                    "destination": [ "obj-67", 0 ],
                    "source": [ "obj-63", 0 ]
                }
            },
            {
                "patchline": {
                    "destination": [ "obj-76", 0 ],
                    "source": [ "obj-64", 0 ]
                }
            },
            {
                "patchline": {
                    "destination": [ "obj-69", 0 ],
                    "source": [ "obj-67", 0 ]
                }
            },
            {
                "patchline": {
                    "destination": [ "obj-67", 1 ],
                    "source": [ "obj-68", 0 ]
                }
            },
            {
                "patchline": {
                    "destination": [ "obj-76", 1 ],
                    "source": [ "obj-69", 0 ]
                }
            },
            {
                "patchline": {
                    "destination": [ "obj-23", 0 ],
                    "source": [ "obj-7", 0 ]
                }
            },
            {
                "patchline": {
                    "destination": [ "obj-71", 0 ],
                    "source": [ "obj-70", 0 ]
                }
            },
            {
                "patchline": {
                    "destination": [ "obj-69", 1 ],
                    "source": [ "obj-71", 0 ]
                }
            },
            {
                "patchline": {
                    "destination": [ "obj-77", 0 ],
                    "source": [ "obj-76", 0 ]
                }
            },
            {
                "patchline": {
                    "destination": [ "obj-46", 0 ],
                    "order": 0,
                    "source": [ "obj-77", 0 ]
                }
            },
            {
                "patchline": {
                    "destination": [ "obj-55", 2 ],
                    "order": 1,
                    "source": [ "obj-77", 0 ]
                }
            },
            {
                "patchline": {
                    "destination": [ "obj-103", 1 ],
                    "source": [ "obj-90", 0 ]
                }
            },
            {
                "patchline": {
                    "destination": [ "obj-90", 0 ],
                    "source": [ "obj-91", 0 ]
                }
            },
            {
                "patchline": {
                    "destination": [ "obj-96", 0 ],
                    "source": [ "obj-95", 0 ]
                }
            },
            {
                "patchline": {
                    "destination": [ "obj-100", 0 ],
                    "source": [ "obj-96", 0 ]
                }
            },
            {
                "patchline": {
                    "destination": [ "obj-104", 0 ],
                    "source": [ "obj-98", 0 ]
                }
            },
            {
                "patchline": {
                    "destination": [ "obj-98", 0 ],
                    "source": [ "obj-99", 0 ]
                }
            }
        ],
        "autosave": 0
    }
}